<?xml version="1.0" standalone="no"?>
<!DOCTYPE svg PUBLIC "-//W3C//DTD SVG 20010904//EN"
 "http://www.w3.org/TR/2001/REC-SVG-20010904/DTD/svg10.dtd">
<svg version="1.0" xmlns="http://www.w3.org/2000/svg"
 width="416.000000pt" height="416.000000pt" viewBox="0 0 416.000000 416.000000"
 preserveAspectRatio="xMidYMid meet">

<g transform="translate(0.000000,416.000000) scale(0.100000,-0.100000)"
fill="#000000" stroke="none">
<path d="M0 3693 l1 -468 22 27 c12 15 38 48 57 72 19 24 42 47 50 50 8 3 37
20 64 36 59 37 154 49 419 51 146 1 178 -1 207 -16 25 -13 45 -15 85 -10 48 6
53 9 69 46 10 21 42 65 72 97 29 31 54 60 54 65 0 4 -9 15 -20 24 -11 10 -20
27 -20 39 0 26 62 84 91 84 11 0 32 12 46 26 18 18 28 22 33 14 4 -7 11 -60
14 -118 7 -93 6 -106 -9 -115 -13 -7 -15 -17 -10 -43 4 -27 3 -34 -9 -34 -10
0 -13 -6 -10 -15 4 -9 -1 -18 -12 -22 -23 -8 -35 -24 -27 -36 3 -4 26 -7 51
-6 38 3 46 0 53 -18 4 -12 19 -23 36 -27 185 -35 781 -52 907 -26 36 7 81 9
119 4 83 -10 137 -6 166 13 14 9 35 13 55 9 17 -3 60 -10 96 -16 36 -6 73 -13
83 -16 14 -4 17 1 17 30 0 19 4 38 10 41 6 3 10 17 10 31 0 14 6 24 14 24 14
0 26 -29 26 -67 0 -27 35 -53 73 -53 l28 0 -7 174 c-7 173 -7 174 15 181 17 5
20 12 15 28 -4 12 -11 24 -16 25 -5 2 7 21 27 43 38 42 49 99 20 99 -10 0 -15
-10 -15 -29 0 -17 -4 -33 -10 -36 -6 -4 -10 9 -10 33 0 47 -22 95 -54 116 -13
8 -23 23 -22 33 1 22 -37 41 -116 57 -38 8 -57 16 -49 20 15 10 98 -2 106 -15
4 -5 15 -9 26 -9 10 0 19 -4 19 -10 0 -5 7 -7 15 -3 10 3 15 1 13 -7 -3 -11
49 -58 55 -49 1 2 1 34 -1 72 l-4 67 -146 0 -145 0 21 -22 c17 -19 21 -38 24
-107 2 -55 -1 -85 -8 -88 -7 -2 -14 28 -20 88 -8 83 -12 94 -35 112 -23 17
-33 18 -75 9 -31 -7 -53 -7 -58 -1 -6 5 -396 9 -998 9 l-988 0 0 -36 c0 -32
-2 -35 -16 -23 -10 8 -13 21 -9 36 5 21 2 23 -34 23 -34 0 -39 -3 -34 -17 6
-17 5 -17 -14 0 -17 15 -43 17 -201 17 l-182 0 0 -467z m490 347 c0 -22 -5
-40 -11 -40 -6 0 -8 8 -4 19 3 11 1 22 -4 25 -12 8 -3 36 10 36 5 0 9 -18 9
-40z m735 -18 c-9 -9 -35 8 -35 24 0 16 2 16 20 -1 11 -10 18 -20 15 -23z m52
-8 c-3 -3 -12 -4 -19 -1 -8 3 -5 6 6 6 11 1 17 -2 13 -5z m-874 -44 c3 -11 2
-20 -3 -20 -8 0 -20 24 -20 41 0 17 17 1 23 -21z m87 -26 c0 -8 -4 -12 -10 -9
-5 3 -10 10 -10 16 0 5 5 9 10 9 6 0 10 -7 10 -16z m2408 -71 c2 -42 -1 -55
-21 -77 -13 -14 -27 -26 -30 -26 -8 0 5 123 15 143 16 31 33 12 36 -40z
m-2408 6 c0 -11 -4 -17 -10 -14 -5 3 -10 13 -10 21 0 8 5 14 10 14 6 0 10 -9
10 -21z m700 12 c0 -6 -4 -12 -9 -16 -5 -3 -12 -19 -16 -35 -4 -17 -11 -30
-16 -30 -15 0 -10 40 9 65 18 25 32 32 32 16z m-703 -103 c-2 -13 -4 -5 -4 17
-1 22 1 32 4 23 2 -10 2 -28 0 -40z m0 -80 c-3 -8 -6 -5 -6 6 -1 11 2 17 5 13
3 -3 4 -12 1 -19z m2353 -13 c0 -8 -4 -15 -10 -15 -5 0 -7 7 -4 15 4 8 8 15
10 15 2 0 4 -7 4 -15z m-2353 -57 c-3 -8 -6 -5 -6 6 -1 11 2 17 5 13 3 -3 4
-12 1 -19z"/>
<path d="M2950 4075 c0 -71 4 -91 21 -114 26 -35 27 -89 3 -126 -16 -25 -18
-46 -14 -194 2 -91 4 -191 4 -221 l1 -55 93 -2 c52 -1 135 -9 185 -17 51 -9
124 -18 162 -22 39 -3 90 -12 115 -19 25 -7 70 -19 100 -26 192 -42 316 -109
410 -221 40 -46 41 -50 45 -135 9 -157 18 -183 61 -166 12 4 15 2 12 -8 -3 -8
-24 -17 -49 -20 -24 -4 -60 -13 -80 -22 -27 -11 -40 -12 -48 -4 -6 6 -45 10
-91 10 -44 -1 -80 3 -80 8 0 12 -37 12 -45 -1 -3 -5 -25 -7 -50 -3 -24 3 -57
1 -73 -5 -21 -7 -33 -7 -41 1 -12 12 -38 14 -286 21 -82 3 -190 7 -240 10 -49
3 -94 1 -100 -4 -14 -11 -87 -16 -103 -6 -7 4 -9 12 -6 18 5 7 -1 9 -18 5 -14
-4 -33 -1 -45 8 -20 14 -53 11 -53 -5 0 -11 -93 -4 -191 14 -78 14 -234 19
-509 14 -25 0 -65 5 -88 11 -46 12 -102 17 -322 26 -74 3 -142 8 -150 11 -8 3
-51 7 -94 9 -62 2 -82 6 -92 20 -12 17 -14 17 -20 2 -6 -16 -44 -24 -56 -12
-5 5 -252 16 -383 17 -16 0 -33 6 -37 12 -6 8 -10 8 -16 -1 -6 -9 -17 -10 -42
-3 -19 5 -57 9 -85 9 -27 -1 -75 4 -105 10 -54 11 -218 22 -294 21 -21 -1 -46
6 -55 14 -22 19 -87 31 -95 17 -9 -14 -76 -15 -76 -1 0 6 -7 10 -15 10 -13 0
-15 -177 -15 -1480 l0 -1480 320 0 c267 0 320 2 320 14 0 14 52 50 139 97 32
17 48 34 57 59 10 28 13 31 13 12 1 -21 5 -23 30 -17 27 6 30 4 33 -22 3 -24
7 -28 33 -26 16 1 37 -5 47 -14 17 -15 19 -15 31 1 11 15 15 16 25 4 9 -12 7
-19 -8 -36 -24 -25 -25 -32 -5 -32 8 0 15 7 15 16 0 14 7 15 39 10 34 -5 41
-3 46 14 3 11 11 20 17 20 5 0 8 -7 4 -15 -4 -12 -1 -12 21 2 l26 18 -18 -30
c-10 -17 -28 -40 -39 -53 l-19 -22 51 0 c37 0 56 5 69 19 10 10 28 24 40 30
19 9 22 9 17 -3 -3 -8 -14 -16 -25 -19 -45 -12 -12 -23 76 -26 62 -1 95 1 95
8 0 6 5 11 11 11 5 0 7 -4 4 -10 -10 -16 15 -12 32 5 14 14 17 14 32 0 21 -18
37 -19 45 -2 5 10 7 10 12 0 4 -9 30 -13 80 -13 61 0 72 3 68 15 -4 8 -1 15 5
15 6 0 11 -7 11 -15 0 -8 9 -15 20 -15 11 0 20 5 20 10 0 6 -4 10 -10 10 -5 0
-10 7 -10 15 0 17 16 20 25 4 4 -6 26 -10 49 -8 63 3 76 0 76 -16 0 -8 9 -15
20 -15 17 0 19 3 10 19 -12 23 -2 32 28 24 13 -3 22 -13 22 -24 0 -11 4 -19
10 -19 5 0 9 6 7 13 -1 6 7 12 18 12 11 1 26 5 34 9 12 8 70 14 165 18 17 0
34 -6 42 -16 8 -12 13 -13 16 -5 3 8 9 9 19 4 8 -5 24 -8 37 -6 12 1 35 -4 52
-12 21 -11 30 -12 33 -3 3 8 8 8 18 -2 21 -19 29 -14 29 19 0 26 3 30 20 26
11 -3 18 0 17 7 -1 6 4 11 11 10 6 -1 24 -2 38 -2 22 -2 24 -5 15 -16 -10 -12
-7 -15 16 -18 20 -2 27 -8 25 -20 -2 -13 4 -18 21 -18 20 0 23 4 19 25 -2 14
-8 25 -13 25 -5 0 -9 5 -9 10 0 18 35 -6 50 -34 10 -20 21 -26 48 -26 l35 0
-32 30 c-36 35 -39 50 -10 50 13 0 23 -8 26 -20 5 -18 7 -19 17 -5 10 14 16
11 46 -19 19 -20 44 -35 55 -35 16 1 16 2 3 6 -21 5 -51 50 -43 63 12 19 33
10 69 -30 l36 -40 610 0 610 0 0 301 c0 240 -3 299 -12 292 -8 -6 -36 -7 -68
-3 -53 7 -54 7 -12 9 23 0 54 8 67 17 l25 16 0 688 c0 542 -3 690 -13 698 -7
6 -30 12 -52 14 -44 3 -75 -19 -75 -54 0 -10 -7 -18 -16 -18 -11 0 -14 -6 -8
-22 6 -21 6 -21 -24 3 -33 25 -42 45 -17 35 19 -7 71 37 61 52 -4 7 -17 12
-29 12 -21 1 -21 1 3 15 26 15 21 19 -20 15 -34 -3 -49 -17 -43 -40 3 -11 0
-20 -6 -20 -6 0 -11 9 -11 20 0 24 3 24 -48 0 -23 -11 -42 -26 -42 -33 0 -6
-8 3 -17 21 -13 26 -21 32 -37 28 -17 -4 -24 2 -35 25 -11 25 -11 33 3 53 8
13 21 24 28 23 7 0 22 1 33 2 20 2 20 2 0 10 -11 4 -22 19 -25 32 -7 30 -32
31 -45 2 -9 -21 -35 -32 -35 -15 0 4 -14 15 -32 25 -30 17 -31 17 -53 -3 -13
-12 -31 -20 -41 -18 -14 2 -18 -2 -16 -17 1 -11 4 -33 5 -50 3 -28 5 -30 47
-30 54 0 76 -12 85 -45 5 -21 1 -28 -28 -43 -25 -14 -39 -16 -58 -9 -24 9 -25
8 -21 -24 2 -19 8 -34 13 -34 5 0 9 -11 9 -25 0 -35 -12 -31 -34 10 -18 33
-21 34 -60 29 -23 -4 -49 -11 -58 -15 -24 -13 -28 -11 -28 11 0 11 -7 20 -15
20 -8 0 -15 6 -15 13 0 7 -9 18 -20 25 -16 10 -20 23 -20 68 0 59 15 83 52 84
35 0 68 23 68 46 0 13 9 28 21 34 20 11 20 12 -5 34 -39 33 -34 59 15 74 38
12 44 11 63 -8 37 -34 55 -27 49 19 -5 39 -5 40 28 43 18 2 34 9 37 16 3 9
-14 12 -60 14 -34 0 -70 1 -78 2 -20 1 -28 86 -8 86 17 1 -21 30 -39 30 -10 0
-11 -5 -4 -19 12 -21 5 -32 -15 -24 -10 4 -14 -4 -14 -32 0 -34 -2 -36 -27
-33 -36 4 -40 -17 -15 -85 18 -50 19 -117 3 -117 -4 0 -18 11 -31 25 -13 14
-29 25 -37 25 -12 0 -15 7 -12 27 0 3 -6 10 -15 15 -11 6 -14 17 -10 34 4 14
2 24 -5 24 -6 0 -11 -3 -12 -7 -1 -5 -3 -27 -5 -49 -4 -49 -20 -94 -33 -94
-11 0 -21 24 -21 51 0 10 -5 19 -10 19 -17 0 -45 31 -68 75 -16 31 -22 66 -26
152 -3 62 -2 114 2 116 4 3 34 8 67 12 53 6 58 5 46 -9 -7 -9 -21 -16 -31 -16
-9 0 -25 -9 -36 -21 -18 -20 -18 -20 11 -13 17 4 41 15 54 26 13 10 37 18 52
18 16 0 29 4 29 9 0 25 42 19 108 -15 l71 -36 51 15 c56 17 108 8 145 -24 14
-13 38 -18 84 -18 35 0 68 -4 74 -10 6 -6 -22 -9 -79 -10 -93 0 -119 -3 -130
-13 -3 -4 36 -5 87 -4 66 2 102 -1 122 -11 33 -17 34 -26 3 -43 -30 -15 -24
-38 13 -47 14 -3 38 -14 53 -24 14 -11 30 -19 35 -19 5 0 25 -11 43 -25 l35
-26 8 26 c5 14 15 25 23 25 8 0 14 5 14 10 0 6 16 10 35 10 l35 0 0 75 c0 61
-3 73 -14 69 -8 -3 -28 2 -45 12 -25 15 -32 15 -45 5 -9 -8 -16 -19 -16 -26 0
-21 -29 -26 -66 -10 -20 8 -38 14 -42 14 -20 -3 -32 2 -32 15 0 7 -7 19 -15
26 -11 9 -13 16 -5 24 7 7 15 3 26 -13 11 -15 23 -21 35 -18 11 3 32 0 48 -6
24 -9 31 -7 49 11 26 26 35 27 66 7 13 -9 31 -13 40 -9 15 6 16 49 15 478 -1
259 -4 461 -6 448 -4 -19 -7 -21 -19 -11 -7 6 -11 15 -8 21 9 15 -17 38 -43
38 -20 0 -23 4 -18 20 5 17 2 20 -24 20 -21 0 -32 6 -36 20 -8 25 -25 26 -25
3 0 -15 -11 -18 -66 -21 -49 -1 -65 1 -62 10 3 7 24 15 49 18 24 3 54 12 66
20 20 13 25 12 47 -9 20 -19 32 -23 60 -18 28 4 35 2 39 -14 5 -19 6 -19 26
-2 19 16 21 28 21 135 0 96 -3 118 -14 118 -15 0 -49 40 -42 48 3 2 16 -4 30
-13 l26 -17 0 106 c0 86 -3 108 -15 112 -8 4 -15 10 -15 15 0 5 7 9 15 9 8 0
15 9 15 20 0 20 -6 20 -362 19 -351 0 -362 -1 -323 -17 51 -21 65 -31 65 -43
0 -12 -45 -12 -68 0 -9 5 -25 12 -35 15 -11 3 -21 15 -24 26 -5 19 -14 20
-234 20 l-229 0 0 -85z m650 -57 c0 -24 -9 -23 -37 4 -34 32 -30 51 7 30 16
-9 30 -25 30 -34z m118 -64 c17 -28 19 -35 7 -32 -21 4 -62 68 -43 68 7 -1 23
-17 36 -36z m142 -125 c36 -36 36 -39 9 -39 -12 0 -30 11 -41 25 -11 14 -25
25 -33 25 -7 0 -19 7 -26 17 -26 31 57 6 91 -28z m84 -94 c43 -18 49 -39 9
-29 -16 4 -29 11 -31 16 -2 4 -10 8 -18 8 -8 0 -14 5 -14 10 0 14 11 13 54 -5z
m-104 -80 c0 -8 -4 -15 -10 -15 -5 0 -10 7 -10 15 0 8 5 15 10 15 6 0 10 -7
10 -15z m-3463 -791 c-3 -3 -12 -4 -19 -1 -8 3 -5 6 6 6 11 1 17 -2 13 -5z
m597 -63 c17 -6 53 -16 79 -24 70 -19 58 -33 -26 -29 -56 3 -76 8 -89 23 -9
10 -26 19 -38 19 -12 0 -18 5 -15 10 8 13 49 13 89 1z m196 -41 c0 -5 -4 -10
-9 -10 -5 0 -16 -3 -25 -6 -11 -4 -16 -1 -16 10 0 10 9 16 25 16 14 0 25 -4
25 -10z m-117 -40 c17 -15 2 -44 -27 -51 -23 -6 -32 -4 -47 14 -23 28 -24 44
-1 50 20 5 64 -2 75 -13z m715 -416 c-9 -9 -22 -14 -30 -11 -8 3 -4 8 12 15
35 15 37 14 18 -4z m-188 -36 c-8 -7 -12 -9 -8 -4 4 5 2 18 -4 30 -10 20 -10
20 8 4 16 -15 16 -20 4 -30z m1042 8 c12 -25 13 -37 5 -45 -17 -17 -29 -13
-22 8 3 11 1 22 -5 26 -11 7 -14 45 -2 45 4 0 15 -16 24 -34z m-222 14 c0 -5
-2 -10 -4 -10 -3 0 -8 5 -11 10 -3 6 -1 10 4 10 6 0 11 -4 11 -10z m388 -2
c-3 -21 12 -56 27 -62 18 -7 20 -37 3 -54 -19 -19 -28 -14 -28 13 0 14 -4 25
-10 25 -5 0 -10 20 -10 45 0 25 5 45 10 45 6 0 10 -6 8 -12z m145 -3 c4 -8 2
-17 -3 -20 -6 -4 -10 3 -10 14 0 25 6 27 13 6z m-1243 -12 c0 -10 -51 -53 -62
-53 -12 0 -10 20 5 34 20 20 57 32 57 19z m377 -9 c9 -24 -12 -39 -38 -28 -20
9 -21 11 -5 27 22 21 35 22 43 1z m166 -17 c-3 -5 -10 -4 -15 1 -6 6 -7 16 -3
22 6 9 9 9 16 -1 4 -7 5 -17 2 -22z m513 -3 c-6 -16 -8 -16 -20 2 -11 14 -11
21 -3 26 17 10 31 -7 23 -28z m134 6 c-18 -11 -24 -6 -16 16 5 14 9 15 19 5 9
-9 9 -14 -3 -21z m-563 0 c-1 -8 -10 -14 -20 -12 -12 2 -17 -4 -17 -23 0 -14
-4 -25 -10 -25 -5 0 -10 -7 -10 -15 0 -21 27 -19 39 3 7 13 13 14 22 5 13 -13
4 -34 -14 -32 -7 1 -25 -3 -40 -9 -16 -7 -36 -12 -46 -12 -9 0 -22 -5 -29 -12
-16 -16 -29 -1 -15 20 6 9 21 16 33 14 17 -1 20 2 15 17 -4 13 2 25 20 39 14
11 25 28 25 38 0 14 7 19 25 19 17 0 25 -5 22 -15z m-170 -7 c2 -6 -4 -13 -13
-17 -21 -8 -26 -3 -18 18 7 18 25 17 31 -1z m43 -4 c0 -5 -7 -9 -15 -9 -9 0
-12 6 -9 15 6 15 24 11 24 -6z m204 4 c-4 -10 -7 -35 -8 -56 0 -22 -4 -36 -10
-34 -6 2 -9 22 -8 47 3 28 -1 46 -10 51 -9 6 -4 9 16 9 23 0 27 -3 20 -17z
m176 -28 c-15 -18 -40 -20 -40 -4 0 7 8 18 18 25 22 16 40 1 22 -21z m-793 9
c5 -14 7 -14 16 2 10 17 11 17 17 -1 10 -26 4 -35 -24 -35 -27 0 -51 24 -41
40 9 15 25 12 32 -6z m173 13 c0 -2 -9 -12 -20 -22 -19 -18 -20 -17 -20 3 0
15 6 22 20 22 11 0 20 -2 20 -3z m50 -16 c0 -13 -29 -41 -42 -41 -7 0 -1 11
12 25 26 27 30 30 30 16z m905 -11 c3 -5 1 -10 -4 -10 -6 0 -11 5 -11 10 0 6
2 10 4 10 3 0 8 -4 11 -10z m455 6 c0 -3 -4 -8 -10 -11 -5 -3 -10 -1 -10 4 0
6 5 11 10 11 6 0 10 -2 10 -4z m-1490 -16 c0 -5 -9 -10 -21 -10 -11 0 -17 5
-14 10 3 6 13 10 21 10 8 0 14 -4 14 -10z m180 -2 c0 -15 -30 -48 -44 -48 -6
0 -5 5 2 12 7 7 12 20 12 30 0 10 7 18 15 18 8 0 15 -5 15 -12z m617 -8 c3
-11 11 -20 19 -20 12 0 34 -29 34 -45 0 -13 -55 6 -67 22 -16 21 -17 63 -2 63
6 0 13 -9 16 -20z m291 -8 c3 -16 -1 -20 -12 -16 -19 7 -22 48 -3 42 6 -3 13
-14 15 -26z m-2010 -1 c3 -8 -1 -12 -9 -9 -7 2 -15 10 -17 17 -3 8 1 12 9 9 7
-2 15 -10 17 -17z m627 9 c3 -5 1 -10 -4 -10 -6 0 -11 5 -11 10 0 6 2 10 4 10
3 0 8 -4 11 -10z m585 -10 c0 -11 -4 -20 -9 -20 -11 0 -22 26 -14 34 12 12 23
5 23 -14z m340 13 c0 -5 -5 -15 -10 -23 -7 -11 -12 -12 -21 -3 -6 6 -8 16 -5
22 8 12 36 15 36 4z m-580 -13 c0 -5 -5 -10 -11 -10 -5 0 -7 5 -4 10 3 6 8 10
11 10 2 0 4 -4 4 -10z m1210 -24 c0 -15 -18 -31 -26 -23 -7 7 7 37 17 37 5 0
9 -6 9 -14z m-2300 -27 c0 -11 -4 -18 -10 -14 -5 3 -7 12 -3 20 7 21 13 19 13
-6z m765 11 c3 -5 1 -10 -4 -10 -6 0 -11 5 -11 10 0 6 2 10 4 10 3 0 8 -4 11
-10z m385 -19 c0 -5 -6 -14 -13 -20 -11 -8 -16 -5 -25 13 -6 13 -8 27 -5 30 7
7 43 -12 43 -23z m161 -24 c-8 -8 -11 -4 -11 14 0 33 14 47 18 19 2 -12 -1
-27 -7 -33z m-31 33 c0 -5 -2 -10 -4 -10 -3 0 -8 5 -11 10 -3 6 -1 10 4 10 6
0 11 -4 11 -10z m274 -13 c-2 -7 2 -21 10 -32 12 -17 12 -23 -6 -48 -31 -43
-26 -107 8 -107 10 0 14 10 12 34 -1 19 -4 34 -7 33 -4 -1 -7 3 -8 8 -2 6 1
10 7 10 5 0 19 8 31 19 21 17 21 20 6 31 -22 16 -23 75 -2 75 8 0 15 -7 15
-15 0 -19 11 -19 36 0 25 19 34 19 34 0 0 -8 -7 -15 -15 -15 -20 0 -19 -40 1
-55 14 -10 14 -15 3 -32 -10 -17 -10 -27 -1 -47 6 -14 16 -26 22 -26 13 0 13
17 0 25 -13 8 -13 42 1 51 14 8 29 -14 22 -33 -7 -18 5 -17 24 3 21 21 54 14
64 -13 7 -20 5 -23 -16 -23 -16 0 -25 -6 -25 -15 0 -10 10 -15 33 -15 18 0 37
-4 43 -9 5 -5 25 -12 43 -16 l35 -7 -44 52 c-45 53 -53 87 -29 117 6 6 6 13 2
15 -4 3 -1 3 7 0 33 -10 80 -10 80 0 0 6 8 4 18 -5 26 -24 32 -21 32 11 0 25
4 29 30 30 34 1 40 -20 14 -50 -16 -16 -16 -21 0 -63 16 -40 56 -85 76 -85 4
0 22 13 39 29 24 22 29 34 25 57 -7 43 -26 87 -44 101 -13 11 -13 12 3 13 10
0 26 -13 35 -30 9 -16 20 -30 25 -30 4 0 7 -6 7 -14 0 -8 6 -16 13 -19 9 -3 9
-7 -2 -20 -12 -15 -11 -17 3 -17 21 0 22 53 1 70 -8 7 -15 22 -15 33 0 23 13
15 16 -10 2 -9 10 -20 18 -25 9 -5 16 -18 16 -28 0 -21 15 -27 25 -10 9 14 25
12 25 -3 0 -8 -11 -20 -25 -27 -30 -16 -42 -54 -25 -75 11 -13 10 -20 0 -40
-16 -31 -8 -40 35 -40 30 0 32 2 24 23 -5 13 -9 35 -9 48 0 14 -4 22 -10 19
-19 -11 -31 5 -19 26 8 16 13 18 25 8 12 -10 17 -8 28 6 8 11 20 16 30 12 22
-9 20 -20 -6 -32 -16 -8 -22 -21 -25 -53 -4 -38 -1 -43 21 -52 30 -11 25 -45
-5 -37 -15 4 -16 2 -7 -19 13 -27 41 -34 31 -8 -4 10 0 20 10 25 8 5 18 22 22
38 9 41 31 59 53 43 31 -22 44 -25 53 -11 6 9 7 2 4 -21 -11 -64 -53 -83 -47
-21 3 24 0 32 -10 29 -7 -3 -12 -14 -10 -25 2 -16 -4 -22 -28 -27 -27 -5 -31
-10 -28 -33 2 -19 8 -27 19 -25 19 3 46 -25 34 -36 -4 -4 -10 -1 -12 6 -3 7
-23 12 -50 12 -44 0 -44 0 -41 -31 2 -18 -1 -30 -7 -28 -5 2 -9 9 -7 16 5 24
-16 22 -22 -3 -4 -14 -12 -24 -19 -21 -19 6 -21 39 -3 53 10 6 14 18 10 28 -9
22 -24 20 -24 -3 0 -11 -4 -23 -10 -26 -5 -3 -10 -17 -10 -31 0 -13 -6 -24
-12 -25 -10 0 -10 -2 0 -6 18 -7 -4 -33 -29 -33 -10 0 -20 -4 -24 -9 -6 -10
-65 -12 -65 -2 0 3 19 15 43 25 l42 19 -30 6 c-17 4 -33 2 -38 -4 -5 -6 -12
-4 -21 8 -7 9 -19 17 -26 17 -10 0 -10 -3 0 -15 15 -18 16 -18 -38 -35 -29 -9
-41 -18 -40 -29 2 -10 -5 -17 -18 -19 -12 -2 -30 -12 -40 -23 -17 -19 -17 -20
6 -11 28 10 80 -12 80 -34 0 -24 15 -15 34 21 20 36 52 47 62 21 6 -15 39 -11
61 7 9 7 15 3 22 -14 5 -13 6 -28 3 -34 -3 -5 1 -4 10 3 13 10 14 20 7 45 -11
40 -12 37 7 37 8 0 22 7 31 16 23 22 42 1 21 -23 -9 -10 -19 -29 -23 -43 l-7
-25 22 25 23 25 -7 -42 c-5 -37 -3 -42 15 -48 14 -5 25 -2 30 6 10 16 2 51
-14 61 -18 11 -14 49 7 73 23 26 40 23 31 -6 -4 -10 -2 -19 4 -19 14 0 26 22
23 43 -2 11 3 17 17 17 15 0 19 -4 14 -17 -5 -13 -2 -15 11 -10 10 4 23 7 31
7 7 0 15 9 18 20 5 21 33 37 45 25 4 -4 -5 -17 -20 -30 -16 -13 -28 -34 -28
-46 0 -15 -5 -19 -15 -15 -8 3 -15 2 -15 -3 0 -5 9 -11 20 -14 25 -6 27 -27 3
-27 -16 -1 -16 -2 1 -15 18 -14 21 -13 37 11 18 28 35 18 24 -15 -3 -11 -1
-22 4 -25 6 -4 8 -13 4 -21 -3 -8 0 -15 5 -15 13 0 14 88 2 128 -5 15 -9 22
-9 15 -1 -7 -10 -17 -20 -23 -18 -9 -19 -7 -15 17 11 59 64 50 136 -23 34 -35
61 -54 76 -54 13 0 21 -4 18 -8 -6 -11 -74 -3 -82 10 -11 18 -34 -15 -34 -49
0 -29 -10 -43 -66 -96 -37 -34 -72 -66 -80 -70 -8 -5 -29 2 -53 18 -23 14 -43
25 -46 25 -2 0 -28 11 -57 24 -124 57 -218 95 -235 95 -46 -1 -131 12 -192 27
l-67 17 0 47 c0 45 1 47 28 46 15 -1 28 -4 28 -7 0 -7 57 -9 88 -3 12 2 22 9
22 15 0 6 -4 8 -8 5 -5 -3 -20 1 -35 9 -14 7 -41 16 -59 20 -18 4 -42 18 -54
31 -12 13 -23 21 -26 18 -11 -10 -59 8 -54 21 2 7 -2 22 -10 34 -14 19 -13 21
5 21 14 0 21 -8 23 -27 4 -33 24 -41 33 -14 12 38 -47 72 -83 50 -30 -19 -51
-5 -47 30 3 23 1 29 -11 24 -11 -4 -13 -14 -9 -34 7 -30 -3 -37 -22 -18 -8 8
-13 8 -17 0 -9 -13 -93 -15 -101 -2 -6 11 13 25 35 26 24 0 25 35 1 35 -12 0
-21 6 -21 15 0 8 -5 26 -12 40 -10 23 -18 26 -52 25 -60 -3 -66 -1 -66 14 0
15 21 26 51 26 10 0 19 5 19 11 0 6 7 9 15 5 9 -3 15 0 15 8 0 7 9 25 21 40
14 18 19 36 16 53 -6 31 1 55 14 48 4 -3 6 -11 3 -18z m250 -7 c8 0 16 -6 19
-12 8 -23 -5 -78 -18 -78 -24 0 -45 12 -45 25 0 22 -17 26 -35 9 -18 -19 -28
-14 -19 9 9 24 35 29 56 11 10 -10 21 -15 24 -11 10 10 -16 47 -34 47 -15 1
-15 2 3 15 17 13 20 13 28 0 4 -8 14 -15 21 -15z m-977 -15 c-9 -7 -14 -15
-10 -18 3 -4 2 -7 -4 -7 -19 0 -21 12 -5 29 10 10 21 16 26 13 5 -3 2 -10 -7
-17z m1483 5 c0 -5 -4 -10 -10 -10 -5 0 -10 5 -10 10 0 6 5 10 10 10 6 0 10
-4 10 -10z m-2345 -20 c3 -6 -1 -13 -10 -16 -19 -8 -30 0 -20 15 8 14 22 14
30 1z m1495 -11 c0 -5 -7 -9 -16 -9 -9 0 -23 -8 -30 -17 -18 -25 -30 -8 -15
20 9 18 19 23 37 19 13 -2 24 -8 24 -13z m-359 -37 c-4 -15 -4 -40 -1 -57 6
-26 8 -28 14 -10 4 11 17 39 28 63 18 40 21 42 34 25 13 -17 15 -17 25 0 13
21 35 22 43 1 3 -8 10 -12 16 -9 5 3 10 0 10 -8 0 -19 -29 -30 -45 -17 -9 8
-14 6 -19 -6 -3 -9 -13 -14 -21 -10 -21 8 -31 -15 -11 -26 9 -5 16 -16 16 -24
0 -8 -4 -12 -10 -9 -5 3 -19 1 -30 -5 -15 -8 -27 -8 -48 2 -24 12 -27 19 -28
68 0 65 3 75 21 60 9 -7 11 -20 6 -38z m419 32 c0 -9 -7 -14 -17 -12 -25 5
-28 28 -4 28 12 0 21 -6 21 -16z m-1150 -23 c0 -11 -4 -23 -10 -26 -6 -4 -10
5 -10 19 0 14 5 26 10 26 6 0 10 -9 10 -19z m315 -9 c-3 -3 -11 0 -18 7 -9 10
-8 11 6 5 10 -3 15 -9 12 -12z m773 -19 c-5 -25 -28 -28 -28 -4 0 12 6 21 16
21 9 0 14 -7 12 -17z m-1538 -13 c0 -5 -2 -10 -4 -10 -3 0 -8 5 -11 10 -3 6
-1 10 4 10 6 0 11 -4 11 -10z m602 -5 c0 -5 -5 -11 -11 -13 -6 -2 -11 4 -11
13 0 9 5 15 11 13 6 -2 11 -8 11 -13z m273 5 c3 -5 -1 -10 -9 -10 -8 0 -18 5
-21 10 -3 6 1 10 9 10 8 0 18 -4 21 -10z m505 -10 c0 -5 3 -9 8 -8 13 2 42
-14 72 -42 22 -20 27 -33 23 -51 -5 -22 -4 -23 9 -6 16 21 50 13 41 -9 -7 -19
11 -18 27 1 22 26 40 18 36 -16 -4 -38 -23 -57 -60 -61 -34 -4 -44 13 -21 35
14 14 13 16 -5 14 -11 -1 -22 -7 -24 -14 -3 -7 -16 -13 -29 -13 -27 0 -50 34
-47 71 3 38 1 46 -14 52 -11 4 -13 -3 -11 -31 5 -51 -3 -72 -26 -72 -15 0 -19
7 -19 33 0 19 3 37 7 41 4 4 6 25 4 46 -2 31 1 40 13 40 9 0 16 -4 16 -10z
m1740 -16 c0 -8 -4 -14 -9 -14 -12 0 -32 26 -25 33 10 9 34 -4 34 -19z m-3160
12 c0 -3 -4 -8 -10 -11 -5 -3 -10 -1 -10 4 0 6 5 11 10 11 6 0 10 -2 10 -4z
m3383 -27 c-17 -17 -37 -1 -22 17 8 10 15 12 23 4 7 -7 7 -13 -1 -21z m-2645
-56 c-10 -49 -13 -53 -39 -53 -37 0 -36 9 1 45 28 27 29 30 13 47 -15 17 -15
20 -3 28 28 18 40 -10 28 -67z m104 49 c-18 -3 -22 -10 -22 -42 0 -48 -20 -65
-21 -18 l-1 33 -11 -27 c-12 -32 -37 -38 -37 -9 0 19 33 58 66 77 14 9 23 9
33 0 12 -9 11 -12 -7 -14z m530 -1 c2 -17 1 -28 -4 -25 -8 5 -12 54 -4 54 2 0
6 -13 8 -29z m1685 23 c-3 -3 -12 -4 -19 -1 -8 3 -5 6 6 6 11 1 17 -2 13 -5z
m-2637 -32 c0 -15 -2 -15 -10 -2 -13 20 -13 33 0 25 6 -3 10 -14 10 -23z
m-280 14 c0 -3 -4 -8 -10 -11 -5 -3 -10 -1 -10 4 0 6 5 11 10 11 6 0 10 -2 10
-4z m198 -18 c-2 -13 -11 -24 -20 -26 -21 -4 -24 18 -6 36 19 19 30 14 26 -10z
m-372 -35 c-10 -26 -18 -8 -9 23 5 21 8 24 11 11 2 -10 1 -25 -2 -34z m949 37
c3 -5 -1 -10 -9 -10 -9 0 -16 -2 -16 -4 0 -2 -2 -11 -5 -19 -6 -13 4 -17 48
-18 11 0 25 8 33 18 13 16 15 17 27 2 16 -21 54 -33 62 -19 11 18 46 12 44 -7
-4 -47 2 -61 27 -66 18 -3 22 -1 15 6 -20 20 -13 47 12 47 37 -1 53 -21 52
-67 -1 -28 4 -44 13 -48 7 -2 11 -9 8 -14 -3 -5 1 -12 10 -15 8 -3 12 -10 9
-16 -3 -5 -1 -10 6 -10 7 0 9 10 7 25 -6 31 -1 31 28 0 14 -15 29 -22 38 -19
11 4 16 0 17 -12 0 -11 3 -14 5 -7 8 18 -13 51 -36 58 -11 3 -20 13 -20 20 0
8 -11 17 -25 21 -16 4 -25 13 -25 25 0 22 11 24 29 7 13 -14 16 -15 62 -17 28
-1 31 -4 25 -25 -7 -30 6 -42 53 -45 12 -1 21 -11 24 -28 6 -34 -3 -51 -15
-29 -13 23 -27 20 -21 -4 3 -11 14 -25 25 -31 11 -6 17 -17 14 -25 -3 -8 0
-14 7 -14 12 0 37 44 37 67 0 7 7 13 15 13 9 0 15 -9 15 -24 0 -13 7 -26 15
-30 8 -3 15 -12 15 -20 0 -19 -23 -33 -28 -18 -7 21 -20 13 -15 -8 6 -23 4
-23 37 -11 18 8 25 19 28 43 3 30 6 33 33 31 28 -2 61 -30 50 -42 -3 -2 -11 4
-19 14 -16 22 -36 12 -36 -20 0 -13 -5 -25 -11 -27 -7 -2 -9 -13 -5 -26 10
-30 28 -28 20 3 -4 18 -2 25 9 25 8 0 26 9 40 20 36 29 45 6 10 -25 -27 -24
-27 -24 -5 -25 36 0 25 -15 -23 -29 -24 -7 -49 -19 -56 -27 -6 -8 -26 -21 -43
-29 -32 -15 -54 -39 -147 -154 l-52 -63 -18 38 c-10 22 -18 44 -19 49 0 6 -10
16 -21 23 -18 12 -24 11 -37 -2 -12 -12 -13 -18 -3 -30 17 -20 9 -41 -14 -41
-10 0 -21 -10 -26 -22 -6 -17 -5 -23 6 -23 8 0 15 5 15 10 0 16 18 12 39 -9
11 -11 23 -16 27 -13 5 4 2 -1 -5 -11 -10 -12 -17 -15 -25 -7 -14 14 -22 13
-41 -6 -19 -20 -38 -7 -62 43 -18 39 -41 53 -53 33 -10 -17 -2 -40 15 -40 17
0 65 -46 65 -64 0 -8 -3 -22 -6 -30 -6 -15 -8 -15 -20 1 -13 17 -13 17 -14 1
0 -22 -16 -23 -24 -2 -7 19 2 37 15 29 23 -15 6 13 -20 33 -38 28 -51 91 -26
128 26 40 7 43 -27 5 -28 -31 -33 -33 -75 -27 -49 6 -73 24 -73 55 0 27 5 26
38 -7 l27 -29 27 27 c19 19 24 30 17 41 -8 12 -10 12 -18 -1 -6 -8 -13 -11
-18 -6 -4 4 0 12 9 17 10 5 14 17 11 29 -4 16 0 20 18 20 24 1 24 1 -3 16 -33
17 -36 40 -8 49 23 7 43 -2 37 -18 -10 -31 50 -50 72 -23 9 11 7 15 -9 19 -14
4 -20 14 -20 34 0 17 -3 23 -8 16 -4 -7 -17 -10 -30 -6 -24 6 -29 19 -9 26 6
2 8 8 4 13 -4 5 -12 2 -17 -6 -8 -13 -12 -11 -25 8 -15 20 -18 21 -31 7 -9 -8
-26 -15 -40 -15 -13 0 -24 -4 -24 -10 0 -5 7 -10 15 -10 8 0 15 -4 15 -10 0
-5 9 -10 20 -10 13 0 20 -7 20 -20 0 -26 -3 -25 -42 10 -26 24 -39 29 -60 24
-16 -3 -28 -3 -28 0 0 16 43 46 66 46 21 0 24 4 19 20 -5 15 -2 20 11 20 13 0
14 3 4 14 -6 8 -19 12 -27 9 -13 -5 -15 -2 -10 11 24 63 17 84 -16 46 -9 -11
-21 -20 -27 -20 -6 0 3 14 19 30 29 31 113 58 97 32 -4 -7 -14 -12 -22 -12 -8
0 -14 -4 -14 -10 0 -5 5 -10 10 -10 6 0 10 -9 10 -20 0 -11 -4 -20 -10 -20 -5
0 -1 -9 10 -20 24 -24 46 -26 54 -5 10 26 26 16 26 -16 0 -24 -4 -30 -15 -25
-8 3 -15 1 -15 -4 0 -11 6 -12 38 -4 18 5 20 9 11 20 -9 11 -8 14 3 14 9 0 24
22 36 50 16 37 26 50 41 50 12 0 21 -4 21 -10 0 -5 11 -10 25 -10 27 0 34 15
10 24 -8 3 -15 13 -15 22 0 14 -7 16 -40 11 -61 -8 -110 9 -110 37 0 13 7 27
16 30 29 11 11 14 -46 6 -34 -4 -61 -3 -72 3 -11 8 -23 7 -40 0 l-23 -12 27 0
c33 -1 47 -20 24 -33 -9 -5 -16 -18 -16 -28 0 -12 -7 -20 -17 -20 -14 0 -19
10 -21 48 -4 62 -6 74 -15 90 -10 15 0 32 19 32 8 0 14 5 14 10 0 6 6 10 14
10 8 0 18 -4 21 -10z m-695 -21 c0 -5 -9 -9 -20 -9 -22 0 -27 16 -7 23 15 5
27 -1 27 -14z m470 3 c0 -5 -11 -14 -25 -20 -28 -13 -35 1 -7 17 21 13 32 14
32 3z m640 -33 c0 -6 -4 -7 -10 -4 -5 3 -10 11 -10 16 0 6 5 7 10 4 6 -3 10
-11 10 -16z m-1082 -7 c2 -7 -3 -12 -12 -12 -9 0 -16 7 -16 16 0 17 22 14 28
-4z m2247 -8 c9 -14 14 -29 10 -32 -7 -7 -45 34 -45 49 0 17 18 9 35 -17z
m558 -1 c11 -11 -14 -33 -37 -33 -13 0 -33 -11 -46 -25 -25 -27 -45 -32 -55
-15 -9 15 22 59 48 70 26 10 81 13 90 3z m-2273 -37 c0 -18 -26 -39 -39 -32
-5 3 -7 15 -4 26 6 22 43 28 43 6z m-844 -35 c-1 -21 -6 -43 -10 -49 -3 -5 -8
-43 -9 -84 -2 -40 -10 -84 -18 -97 -11 -18 -11 -25 -1 -28 6 -3 12 -12 11 -21
0 -11 -2 -12 -6 -4 -7 17 -23 15 -23 -3 0 -16 34 -38 44 -28 3 3 6 -1 6 -10 0
-9 -6 -16 -12 -14 -9 1 -14 -13 -16 -40 -3 -39 -1 -42 32 -54 36 -13 47 -32
24 -43 -10 -5 -10 -7 0 -12 17 -8 15 -34 -3 -34 -8 0 -24 15 -35 33 l-21 32 7
-70 c4 -38 8 -72 10 -74 2 -2 12 7 23 20 11 13 20 21 21 17 0 -13 -23 -58 -30
-58 -4 0 -10 -9 -13 -19 -5 -20 26 -81 42 -81 5 0 11 -15 14 -32 11 -67 31
-108 49 -102 13 4 19 -2 24 -22 l7 -28 23 29 c19 24 21 32 11 45 -24 29 -37
69 -25 76 13 8 38 -23 38 -48 0 -19 36 -26 42 -8 2 6 15 6 33 2 23 -7 30 -14
30 -34 0 -14 6 -32 14 -42 23 -28 4 -29 -32 -2 -42 32 -51 32 -65 1 -8 -18
-19 -25 -38 -25 -15 0 -24 -3 -20 -7 4 -5 9 -6 10 -3 2 3 10 -1 18 -7 12 -10
21 -8 48 12 39 29 55 25 19 -4 -24 -19 -24 -20 -6 -50 l18 -31 -26 0 c-15 0
-24 -4 -20 -10 3 -6 3 -10 0 -10 -3 0 -12 15 -20 33 -10 23 -14 27 -15 12 0
-17 -3 -16 -25 10 -29 36 -31 22 -8 -48 14 -40 19 -47 21 -29 3 22 4 23 28 7
23 -15 27 -15 50 0 13 8 24 21 24 27 0 6 2 9 5 6 4 -3 -3 -21 -14 -41 -11 -19
-18 -37 -16 -39 2 -2 -11 -3 -28 -3 -22 0 -33 -5 -35 -18 -4 -22 42 -67 69
-67 10 0 19 -7 19 -15 0 -9 9 -15 25 -15 16 0 34 -12 52 -34 20 -26 30 -32 40
-25 31 26 29 0 -3 -38 -41 -49 -65 -54 -96 -18 -15 17 -32 25 -54 25 -37 0
-44 15 -44 96 0 32 -5 54 -12 57 -7 2 -22 31 -32 63 -11 33 -23 63 -28 69 -4
5 -8 19 -8 31 0 12 -9 44 -21 71 -11 26 -29 72 -40 102 -10 30 -25 61 -32 70
-18 20 -27 52 -33 116 -2 28 -9 95 -14 150 -5 55 -14 123 -20 151 -9 46 -8 61
15 129 14 43 25 84 25 91 0 17 32 134 37 134 1 0 1 -17 -1 -39z m914 32 c0 -5
-5 -15 -10 -23 -7 -12 -12 -12 -22 -2 -10 10 -10 15 2 22 18 12 30 13 30 3z
m107 -25 c-3 -8 -6 -5 -6 6 -1 11 2 17 5 13 3 -3 4 -12 1 -19z m-331 -14 c-3
-9 -6 -18 -6 -20 0 -2 -7 -4 -15 -4 -18 0 -19 12 -3 28 17 17 31 15 24 -4z
m2459 -10 c22 -34 12 -104 -15 -104 -23 0 -39 58 -20 70 8 5 10 18 6 34 -8 33
7 33 29 0z m-3290 -102 c-3 -4 -10 0 -15 8 -9 13 -10 13 -11 0 -1 -8 0 -23 1
-34 1 -11 -3 -15 -9 -12 -15 10 -14 41 3 55 8 6 18 33 22 59 l9 47 3 -59 c2
-32 0 -61 -3 -64z m975 104 c0 -3 -4 -8 -10 -11 -5 -3 -10 -1 -10 4 0 6 5 11
10 11 6 0 10 -2 10 -4z m1885 -23 c2 -10 4 -25 4 -34 1 -20 42 -39 84 -39 30
1 31 1 13 15 -19 14 -19 15 7 15 25 0 26 -2 20 -32 -8 -44 -9 -45 -48 -24 -19
10 -43 16 -55 13 -11 -3 -18 -2 -15 3 3 4 -2 13 -10 20 -9 7 -15 29 -15 53 0
40 8 46 15 10z m-2250 -2 c-3 -6 -11 -11 -17 -11 -6 0 -6 6 2 15 14 17 26 13
15 -4z m315 9 c0 -5 -5 -10 -11 -10 -5 0 -7 5 -4 10 3 6 8 10 11 10 2 0 4 -4
4 -10z m670 -11 c0 -5 -7 -9 -15 -9 -9 0 -12 6 -9 15 6 15 24 11 24 -6z m1175
11 c3 -5 -3 -10 -15 -10 -12 0 -18 5 -15 10 3 6 10 10 15 10 5 0 12 -4 15 -10z
m-1994 -47 c-9 -17 -10 -17 -16 0 -4 9 -1 25 6 34 13 15 14 15 17 0 2 -9 -1
-24 -7 -34z m495 35 c4 -7 3 -8 -4 -4 -14 8 -52 -28 -52 -49 0 -8 -5 -15 -11
-15 -7 0 -9 10 -5 28 11 43 55 68 72 40z m504 -3 c7 -8 16 -13 20 -10 4 3 10
-4 13 -15 7 -28 -7 -25 -45 10 -23 21 -28 29 -17 30 9 0 22 -7 29 -15z m-1201
-53 c0 -20 -4 -46 -9 -57 -7 -14 -8 -9 -4 18 4 23 2 43 -6 52 -6 8 -9 19 -5
25 12 19 25 -1 24 -38z m1281 34 c0 -9 7 -12 20 -9 11 3 26 1 33 -5 20 -16 86
-31 93 -21 7 12 34 12 34 0 0 -5 -9 -12 -19 -16 -18 -5 -18 -8 7 -34 28 -28
62 -31 62 -5 0 8 5 14 11 14 5 0 7 -5 4 -10 -3 -6 4 -15 17 -20 l23 -10 -25 1
c-48 2 -60 -1 -60 -17 0 -10 5 -14 15 -10 8 3 21 9 29 12 16 6 49 -24 40 -37
-12 -20 -59 -30 -106 -24 -27 4 -48 11 -48 16 0 6 -11 21 -25 35 -14 14 -25
35 -25 48 0 16 -7 26 -21 29 -15 4 -19 2 -15 -9 5 -12 1 -14 -17 -9 -40 12
-61 53 -48 93 3 9 21 -1 21 -12z m-1340 -6 c0 -5 -4 -10 -10 -10 -5 0 -10 5
-10 10 0 6 5 10 10 10 6 0 10 -4 10 -10z m-315 -10 c3 -5 -1 -10 -9 -10 -9 0
-16 5 -16 10 0 6 4 10 9 10 6 0 13 -4 16 -10z m765 -39 c0 -21 -6 -44 -14 -50
-16 -13 -14 -80 2 -90 5 -3 13 -21 17 -38 6 -31 49 -73 74 -73 6 0 11 -16 11
-35 0 -39 -9 -44 -28 -15 -7 11 -18 20 -26 20 -8 0 -16 7 -20 15 -3 9 -12 12
-22 8 -15 -5 -16 0 -12 41 5 37 2 49 -12 59 -28 20 -29 81 -2 110 26 28 27 36
5 52 -18 13 -10 35 13 35 10 0 14 -12 14 -39z m308 27 c-3 -7 -13 -15 -24 -17
-16 -3 -17 -1 -5 13 16 19 34 21 29 4z m440 -5 c6 -19 -35 -16 -42 3 -4 11 0
15 16 12 12 -2 23 -9 26 -15z m-815 -4 c-6 -6 -9 -17 -7 -24 5 -12 -30 -28
-40 -17 -7 6 35 49 49 51 5 1 4 -4 -2 -10z m887 -31 c0 -11 -18 -10 -41 2 -30
17 -22 29 11 17 17 -6 30 -15 30 -19z m904 16 c3 -8 2 -12 -4 -9 -6 3 -10 10
-10 16 0 14 7 11 14 -7z m-2277 0 c-3 -3 -12 -4 -19 -1 -8 3 -5 6 6 6 11 1 17
-2 13 -5z m600 -24 c-7 -19 -15 -26 -21 -20 -6 6 -3 17 9 30 24 27 25 25 12
-10z m-277 -16 c0 -15 -6 -24 -15 -24 -15 0 -21 40 -9 53 12 11 24 -3 24 -29z
m1410 5 c0 -6 -4 -7 -10 -4 -5 3 -10 11 -10 16 0 6 5 7 10 4 6 -3 10 -11 10
-16z m-1075 -9 c3 -6 -4 -24 -16 -42 l-23 -31 -10 23 c-8 17 -7 25 2 28 6 2
12 10 12 18 0 16 26 19 35 4z m-1067 -47 c0 -26 -3 -32 -9 -22 -7 13 -2 59 6
59 2 0 3 -17 3 -37z m662 16 c0 -5 -4 -9 -10 -9 -5 0 -10 7 -10 16 0 8 5 12
10 9 6 -3 10 -10 10 -16z m34 6 c3 -8 1 -15 -4 -15 -6 0 -10 7 -10 15 0 8 2
15 4 15 2 0 6 -7 10 -15z m156 -6 c0 -5 -4 -9 -10 -9 -5 0 -10 7 -10 16 0 8 5
12 10 9 6 -3 10 -10 10 -16z m-660 -11 c0 -13 -32 -6 -37 9 -3 7 3 9 16 6 12
-3 21 -10 21 -15z m400 12 c0 -5 -5 -10 -11 -10 -5 0 -7 5 -4 10 3 6 8 10 11
10 2 0 4 -4 4 -10z m284 -21 c-4 -7 -7 -21 -8 -33 -1 -22 -7 -24 -43 -11 -32
10 -29 24 7 32 17 3 33 10 36 14 3 5 7 9 10 9 3 0 2 -5 -2 -11z m126 1 c0 -5
-2 -10 -4 -10 -3 0 -8 5 -11 10 -3 6 -1 10 4 10 6 0 11 -4 11 -10z m-420 -46
c0 -8 -6 -14 -13 -14 -19 0 -50 37 -42 49 8 14 55 -16 55 -35z m-430 29 c0 -5
-4 -15 -10 -23 -11 -18 -25 -7 -17 15 6 15 27 21 27 8z m490 -2 c0 -6 -4 -13
-10 -16 -5 -3 -10 1 -10 9 0 9 5 16 10 16 6 0 10 -4 10 -9z m1278 -19 c-2 -8
-8 -17 -14 -19 -13 -4 -27 24 -19 37 9 14 36 -1 33 -18z m452 -11 c0 -11 -4
-9 -14 4 -8 11 -12 24 -9 28 7 11 23 -12 23 -32z m-1670 13 c0 -8 -5 -12 -10
-9 -6 4 -8 11 -5 16 9 14 15 11 15 -7z m312 -36 c-9 -9 -12 -4 -11 23 0 32 1
33 11 11 8 -17 8 -26 0 -34z m-562 17 c0 -8 -9 -19 -19 -25 -30 -15 -33 -12
-15 15 18 28 34 33 34 10z m182 -27 c-6 -6 -16 -7 -22 -3 -9 6 -9 9 1 16 17
10 34 0 21 -13z m82 -3 c-15 -23 -34 -33 -34 -18 0 10 32 43 42 43 5 0 1 -11
-8 -25z m390 4 c-1 -8 -4 -21 -6 -29 -3 -8 -3 -12 -1 -7 3 4 20 7 39 7 24 0
34 -5 34 -15 0 -11 -11 -15 -41 -15 -24 0 -38 -4 -34 -10 3 -6 18 -7 32 -4 21
6 25 4 20 -8 -3 -9 -1 -20 4 -25 7 -7 -4 -11 -33 -11 -41 -1 -45 1 -56 32 -15
42 -15 47 3 40 10 -4 15 0 15 11 0 17 -1 17 -47 -2 -8 -3 -13 3 -13 14 0 14
10 23 33 30 39 13 52 11 51 -8z m-347 -42 c-14 -43 -77 -77 -77 -42 0 8 7 15
15 15 8 0 15 6 15 14 0 12 36 44 51 45 3 1 1 -14 -4 -32z m104 20 c9 -7 20
-27 24 -45 7 -32 6 -33 -22 -28 -15 2 -31 5 -34 5 -3 1 -6 8 -6 15 0 12 5 13
20 5 10 -6 21 -8 25 -5 3 3 -1 6 -9 6 -11 0 -11 2 1 10 10 6 11 10 3 10 -7 0
-13 6 -13 14 0 8 -6 17 -12 19 -7 3 -8 6 -3 6 6 0 17 -5 26 -12z m1156 -36
c28 -35 61 -44 43 -12 -15 28 -13 38 9 44 13 3 18 0 15 -8 -3 -7 2 -15 11 -19
10 -3 15 -12 11 -21 -3 -8 -1 -15 4 -15 6 0 10 4 10 9 0 5 9 7 20 4 11 -3 20
-1 20 5 0 5 11 9 24 8 13 0 24 -5 23 -10 -1 -5 16 -9 37 -10 45 -2 53 -14 35
-58 -11 -27 -16 -30 -48 -25 -20 3 -43 6 -51 8 -9 3 -14 -3 -14 -13 1 -10 -2
-18 -7 -18 -5 0 -9 -5 -9 -10 0 -6 10 -8 24 -4 30 7 77 -21 69 -42 -3 -8 -1
-14 5 -14 9 0 32 26 66 74 13 19 14 19 31 2 10 -9 20 -14 24 -10 3 4 0 9 -6
11 -20 7 -15 48 6 67 21 19 42 21 104 10 59 -10 43 -21 -24 -16 -41 3 -60 1
-55 -6 3 -5 15 -8 26 -5 14 4 21 -1 26 -21 3 -14 10 -26 14 -26 5 0 15 -3 23
-6 12 -4 14 0 10 15 -4 14 -1 21 10 21 17 0 38 -22 41 -43 3 -20 34 -49 41
-38 3 5 1 13 -5 16 -6 4 -8 15 -5 25 4 12 -2 24 -17 34 -12 9 -18 16 -13 16
16 0 55 -43 55 -62 0 -10 5 -18 12 -18 6 0 20 -7 30 -17 11 -9 18 -11 18 -5 0
7 5 12 10 12 6 0 10 -7 10 -16 0 -11 5 -14 16 -10 13 5 15 1 12 -18 -3 -14 -1
-31 3 -38 6 -9 9 -6 9 10 0 26 19 30 21 5 1 -10 1 -21 0 -25 0 -5 8 -8 19 -8
23 0 42 -31 34 -57 -5 -15 -4 -15 5 -3 6 8 11 23 11 33 0 10 7 20 15 23 8 4
15 13 15 21 0 10 -6 13 -15 9 -8 -3 -22 -9 -32 -13 -11 -4 -14 -3 -9 5 4 7 13
12 21 12 7 0 15 6 18 13 3 9 9 8 21 -4 15 -14 15 -21 -8 -90 -14 -41 -35 -114
-47 -164 -22 -93 -38 -132 -66 -165 -20 -23 -66 -101 -87 -146 -51 -112 -86
-172 -130 -217 -30 -32 -50 -47 -53 -39 -3 7 6 21 19 31 36 30 13 37 -25 8
l-34 -26 -11 50 c-7 28 -12 66 -12 85 0 20 -4 43 -9 52 -4 9 -11 34 -14 54
l-6 37 60 7 c66 7 71 11 62 42 -6 26 -38 29 -67 7 -23 -17 -46 -20 -46 -5 0 6
8 10 19 10 10 0 24 7 31 15 7 9 20 14 29 13 9 -2 24 5 33 14 10 10 25 15 35
12 15 -5 16 -4 3 5 -21 15 -45 14 -60 -4 -7 -8 -22 -15 -34 -15 -26 -1 -66
-33 -66 -54 0 -9 -4 -16 -9 -16 -15 0 -22 32 -10 46 12 15 -4 54 -24 54 -7 0
-6 4 3 10 11 7 7 10 -17 10 -35 0 -63 30 -69 73 -30 232 -33 272 -18 296 15
22 14 25 -12 52 -21 22 -30 26 -41 17 -14 -11 -28 -4 -28 15 0 7 -19 15 -42
18 -59 7 -85 33 -77 76 10 54 -17 53 -70 -3 -25 -26 -46 -54 -46 -61 0 -7 -11
-13 -26 -13 -32 0 -27 20 9 38 15 7 27 17 27 23 0 19 3 24 21 37 10 7 24 22
29 33 18 32 -15 23 -58 -16 -22 -19 -42 -32 -45 -29 -8 8 20 49 33 50 6 1 15
2 21 3 5 0 9 9 8 19 -3 29 0 30 38 22 22 -5 46 -20 60 -39z m-1357 18 c0 -5
-4 -9 -10 -9 -5 0 -10 7 -10 16 0 8 5 12 10 9 6 -3 10 -10 10 -16z m-370 -5
c0 -2 -9 -4 -21 -4 -11 0 -18 4 -14 10 5 8 35 3 35 -6z m63 -9 c-3 -9 -8 -14
-10 -11 -3 3 -2 9 2 15 9 16 15 13 8 -4z m197 11 c0 -3 -4 -8 -10 -11 -5 -3
-10 -1 -10 4 0 6 5 11 10 11 6 0 10 -2 10 -4z m-120 -10 c0 -2 -7 -9 -15 -16
-12 -10 -15 -10 -15 4 0 9 7 16 15 16 8 0 15 -2 15 -4z m154 -12 c8 -22 9 -21
-24 -37 -37 -19 -46 -2 -16 30 25 27 32 28 40 7z m-467 -26 c-3 -8 -6 -5 -6 6
-1 11 2 17 5 13 3 -3 4 -12 1 -19z m1717 -16 c6 -10 -47 -52 -64 -52 -5 0 -10
-7 -10 -15 0 -8 -5 -15 -11 -15 -6 0 -9 -8 -7 -18 3 -12 -2 -24 -14 -31 -29
-18 -33 -6 -9 27 27 38 26 48 -1 56 -19 5 -20 8 -9 15 9 6 22 6 33 0 22 -12
41 -2 34 17 -3 8 0 11 8 8 8 -3 17 -1 21 5 7 13 22 14 29 3z m-1514 -31 c-1
-21 -20 -33 -44 -27 -19 5 -26 3 -26 -9 0 -8 -9 -15 -20 -15 -11 0 -20 7 -20
15 0 13 14 21 23 13 1 -2 16 7 32 18 26 20 55 22 55 5z m57 -3 c-3 -8 -6 -5
-6 6 -1 11 2 17 5 13 3 -3 4 -12 1 -19z m549 7 c-4 -13 -2 -13 14 -5 24 13 30
13 30 0 0 -5 -7 -10 -15 -10 -8 0 -15 -5 -15 -12 0 -6 -3 -8 -6 -5 -4 3 -15 2
-25 -4 -22 -11 -25 1 -9 32 13 22 35 26 26 4z m80 -52 c-10 -10 -19 5 -10 18
6 11 8 11 12 0 2 -7 1 -15 -2 -18z m1883 -21 c-7 -20 -18 -32 -29 -32 -32 0
-33 20 -4 51 33 34 49 26 33 -19z m-2029 23 c6 -8 8 -20 4 -26 -5 -9 -11 -7
-21 6 -23 33 -9 51 17 20z m-123 -17 c-3 -8 -6 -5 -6 6 -1 11 2 17 5 13 3 -3
4 -12 1 -19z m1093 -4 c0 -8 7 -14 15 -14 8 0 15 -6 15 -14 0 -11 -11 -14 -47
-10 -55 5 -57 6 -48 34 5 15 13 20 26 17 10 -3 19 -1 19 5 0 5 5 6 10 3 6 -3
10 -13 10 -21z m-826 -21 c9 4 16 14 17 24 0 16 1 15 8 -2 12 -30 -5 -53 -44
-61 -19 -3 -38 -10 -41 -15 -7 -12 -34 -11 -34 1 0 6 7 10 15 10 17 0 21 25 5
35 -5 3 -2 13 8 24 16 17 18 17 33 -2 10 -12 23 -18 33 -14z m88 15 c-7 -7
-12 -8 -12 -2 0 6 3 14 7 17 3 4 9 5 12 2 2 -3 -1 -11 -7 -17z m387 12 c-1 -3
3 -15 10 -28 16 -30 4 -48 -19 -27 -18 16 -16 69 2 63 5 -2 8 -6 7 -8z m178
-32 c-3 -8 -6 -5 -6 6 -1 11 2 17 5 13 3 -3 4 -12 1 -19z m-870 -3 c3 -9 3
-19 -1 -22 -9 -10 -58 16 -51 27 10 16 45 12 52 -5z m367 -33 c5 -23 13 -42
18 -42 5 0 7 4 3 9 -6 10 46 51 65 51 8 0 10 -8 7 -21 -3 -11 3 -36 13 -55 11
-18 17 -41 14 -49 -6 -14 -8 -14 -25 1 -10 9 -21 29 -24 44 -4 20 -11 27 -21
23 -8 -3 -12 -8 -10 -11 8 -8 -14 -32 -29 -32 -19 0 -41 40 -49 88 -6 38 -4
43 11 40 12 -2 21 -18 27 -46z m-947 -9 c-4 -17 -4 -17 -12 0 -4 9 -4 25 0 35
8 16 8 16 12 0 3 -10 3 -26 0 -35z m371 33 c-7 -8 -15 -12 -17 -11 -5 6 10 25
20 25 5 0 4 -6 -3 -14z m277 -46 c-10 -10 -11 -20 -4 -32 8 -14 7 -16 -5 -12
-9 3 -13 14 -9 27 3 12 4 33 4 46 -1 24 -1 24 13 5 12 -16 12 -21 1 -34z m243
28 c-2 -17 -10 -23 -28 -23 -16 0 -27 -7 -30 -20 -3 -11 -14 -21 -23 -23 -24
-5 -22 35 2 43 10 3 26 14 36 25 25 27 47 26 43 -2z m-648 2 c0 -5 -4 -10 -10
-10 -5 0 -10 5 -10 10 0 6 5 10 10 10 6 0 10 -4 10 -10z m283 -16 c-3 -9 0
-20 8 -25 11 -7 10 -9 -4 -9 -10 0 -20 7 -23 15 -8 20 3 48 15 40 6 -3 7 -13
4 -21z m887 11 c7 -8 13 -35 14 -59 0 -24 4 -48 9 -52 4 -4 -3 -18 -15 -31
-12 -13 -16 -24 -10 -24 26 -3 31 -4 38 -11 4 -5 12 -8 18 -8 6 0 5 5 -2 12
-21 21 -13 36 23 49 19 7 35 17 35 22 0 5 -7 7 -15 3 -10 -3 -15 1 -15 13 0
10 -7 24 -15 31 -17 14 -21 55 -5 45 6 -4 18 -1 26 6 13 11 19 9 36 -11 19
-24 19 -24 15 -3 -6 29 17 20 32 -13 14 -32 14 -32 -6 -37 -14 -4 -12 -5 5 -6
12 0 22 -6 22 -12 0 -7 11 -9 30 -6 27 6 30 4 36 -30 7 -36 7 -36 20 -12 10
20 10 27 -1 39 -9 9 -11 21 -6 29 11 18 31 5 31 -20 0 -10 7 -19 15 -19 8 0
15 -6 15 -14 0 -8 7 -17 16 -20 17 -6 66 3 74 14 9 12 58 21 64 11 3 -5 -7
-11 -23 -14 -21 -4 -31 -14 -36 -34 -6 -26 -8 -26 -19 -10 -7 9 -16 17 -20 17
-11 0 -7 -25 7 -39 6 -6 12 -24 12 -39 0 -22 4 -26 20 -23 11 2 35 3 53 3 17
0 32 4 32 9 0 5 -8 9 -17 9 -16 0 -16 1 0 17 20 20 24 17 29 -22 2 -22 -1 -30
-13 -30 -19 0 -69 -32 -69 -44 0 -15 54 -10 73 7 16 14 19 14 27 2 14 -22 12
-33 -5 -26 -8 3 -15 1 -15 -4 0 -6 5 -10 10 -10 6 0 10 -16 10 -36 0 -39 -23
-44 -28 -7 -2 12 -11 24 -20 28 -14 5 -15 4 -4 -6 6 -7 12 -21 12 -31 0 -19
-4 -20 -65 -19 -22 1 -47 -3 -55 -9 -18 -12 -23 -11 80 -15 56 -2 88 1 93 9 5
8 9 7 16 -2 4 -8 11 -13 15 -12 29 7 22 -11 -15 -38 -24 -18 -48 -31 -54 -29
-41 16 -57 18 -51 8 4 -6 15 -11 26 -11 13 0 17 -5 13 -20 -4 -14 -14 -20 -35
-20 -21 0 -28 -4 -26 -16 4 -23 -19 -29 -25 -7 -4 16 -6 15 -12 -5 -4 -13 -13
-21 -21 -18 -7 3 -18 -2 -25 -10 -10 -12 -14 -12 -21 -2 -6 10 -13 7 -27 -12
-15 -19 -22 -22 -33 -13 -9 8 -19 9 -28 3 -23 -14 -50 -12 -50 4 0 8 9 18 20
21 11 3 20 10 20 15 0 4 -9 6 -20 3 -11 -3 -20 0 -20 6 0 6 -5 11 -11 11 -7 0
-10 -14 -7 -35 4 -34 -12 -49 -27 -25 -3 5 -15 10 -27 10 -11 0 -35 7 -54 16
-27 13 -34 22 -34 44 0 15 -7 34 -17 41 -15 13 -15 12 -5 -8 7 -12 8 -24 3
-27 -9 -6 -25 9 -33 34 -10 28 -7 35 12 32 11 -2 20 1 20 6 0 13 -44 34 -66
30 -29 -5 -29 29 0 67 21 26 22 33 9 31 -9 -2 -19 -8 -21 -14 -2 -7 -10 -12
-18 -12 -11 0 -14 -9 -12 -32 4 -36 -12 -46 -37 -22 -15 16 -18 16 -33 0 -15
-15 -14 -16 12 -16 33 0 31 -23 -2 -28 -17 -3 -22 -10 -22 -32 0 -29 38 -67
85 -85 13 -5 15 -9 8 -12 -21 -8 -15 -52 12 -78 25 -26 45 -32 45 -15 0 6 5
10 10 10 6 0 10 -12 10 -26 0 -21 3 -25 18 -18 9 4 32 8 50 8 17 0 32 3 32 8
0 4 -9 8 -20 8 -10 0 -24 9 -30 21 -7 12 -17 18 -27 15 -8 -3 -27 2 -41 13
-15 10 -31 19 -37 19 -13 1 -19 22 -7 22 6 0 41 -16 79 -35 126 -63 212 -66
383 -13 60 19 123 61 208 136 14 12 34 22 45 22 21 0 21 0 1 -15 -10 -8 -25
-15 -31 -15 -15 0 -17 -16 -4 -24 5 -3 11 1 15 9 3 8 12 15 21 15 20 0 20 -56
0 -64 -8 -3 -15 -12 -15 -20 0 -8 -6 -17 -12 -20 -10 -5 -10 -7 0 -12 28 -13
33 -53 12 -92 -25 -46 -25 -55 0 -47 15 5 18 3 14 -9 -3 -9 -1 -16 5 -16 6 0
11 5 11 10 0 24 30 7 39 -23 10 -29 10 -28 5 12 -7 53 10 49 21 -5 5 -30 3
-39 -14 -51 -12 -8 -21 -24 -21 -37 0 -31 -37 -69 -62 -63 -11 3 -26 3 -34 0
-12 -4 -11 -8 3 -19 13 -9 15 -16 7 -24 -9 -9 -16 -7 -30 8 -27 27 -108 63
-128 56 -23 -9 -20 -27 4 -19 25 8 25 0 1 -26 -15 -17 -26 -19 -51 -14 -23 5
-30 4 -25 -4 10 -18 -36 -50 -73 -51 -18 0 -31 4 -28 9 7 10 -24 25 -33 16 -3
-3 1 -10 9 -15 8 -6 12 -10 7 -10 -11 0 -51 23 -59 35 -5 6 -8 6 -8 0 0 -5 -7
1 -16 13 -9 13 -22 21 -30 18 -8 -3 -24 -1 -36 4 -22 8 -10 15 20 11 8 -1 20
6 27 16 12 15 11 21 -7 40 -12 13 -18 23 -14 23 5 0 3 7 -4 15 -17 20 -27 19
-35 -5 -10 -32 -27 -23 -23 12 2 26 7 33 23 31 12 -1 26 7 33 18 11 18 10 19
-11 14 -21 -6 -26 -1 -40 32 l-15 38 -11 -29 c-7 -16 -14 -26 -18 -23 -3 4
-19 -1 -34 -10 -33 -20 -49 -11 -31 17 10 17 9 18 -6 13 -9 -4 -21 -13 -27
-20 -13 -17 -57 -21 -62 -6 -2 6 5 14 16 18 12 3 21 13 21 21 0 8 7 14 15 14
8 0 15 4 15 9 0 11 -43 1 -52 -12 -4 -6 -13 -4 -23 6 -19 20 -17 83 3 79 6 -1
12 2 12 7 0 15 -22 19 -53 10 -22 -6 -33 -3 -48 12 -10 10 -23 19 -29 19 -5 0
-10 9 -10 20 0 25 5 25 37 0 31 -24 58 -27 49 -4 -3 9 -6 19 -6 23 0 5 -11 6
-24 4 -20 -4 -24 0 -28 26 -4 26 -1 31 16 31 14 0 17 3 9 11 -13 13 -132 19
-139 7 -3 -4 5 -8 18 -8 47 0 66 -11 64 -36 0 -13 -5 -24 -10 -24 -5 0 -15 -8
-22 -17 -13 -17 -13 -17 -15 0 -3 35 -4 38 -15 45 -11 6 -84 125 -84 135 0 3
9 7 20 10 11 3 20 13 20 22 0 10 -5 13 -12 9 -7 -4 -5 2 5 13 9 11 17 25 17
31 0 7 4 12 8 12 4 0 7 -21 7 -46 0 -33 -5 -48 -17 -55 -10 -6 -18 -17 -18
-25 0 -11 7 -13 27 -8 15 4 33 7 40 7 7 0 13 4 13 9 0 5 4 7 9 4 18 -11 41 6
41 30 0 13 5 24 10 24 6 0 10 -16 10 -35 0 -27 -6 -37 -27 -49 l-28 -14 28 -7
c32 -8 73 20 58 39 -14 18 -21 75 -10 82 5 3 21 -6 34 -20 29 -31 35 -32 35
-6 0 11 -6 20 -14 20 -8 0 -17 7 -20 16 -5 13 -15 15 -41 11 -19 -3 -37 -1
-41 4 -10 17 -32 -10 -27 -31 4 -15 0 -20 -15 -20 -20 0 -39 41 -27 60 3 4 0
10 -7 12 -24 8 4 30 33 24 17 -3 29 -1 33 7 3 9 7 8 14 -2 8 -12 15 -11 43 5
18 11 35 26 37 34 4 11 -1 10 -23 -4 -18 -12 -30 -14 -34 -8 -4 7 -12 8 -21 2
-19 -12 -40 -13 -40 -1 0 17 95 101 108 96 9 -3 11 1 7 14 -4 14 5 30 30 55
41 41 48 43 73 18 22 -22 42 -18 42 8 0 13 -6 18 -20 15 -24 -5 -37 12 -21 28
9 9 14 8 21 -3 5 -8 12 -11 16 -7 4 4 3 12 -3 18 -12 12 -7 39 7 39 4 0 13 -7
20 -15z m1165 -5 c3 -5 -1 -10 -9 -10 -9 0 -16 5 -16 10 0 6 4 10 9 10 6 0 13
-4 16 -10z m-928 -36 c9 -24 -5 -29 -27 -9 -28 25 -27 50 1 35 11 -6 23 -18
26 -26z m-764 -52 c-3 -26 -11 -42 -19 -42 -28 0 -13 -44 26 -82 23 -21 34
-38 26 -38 -7 0 -28 13 -44 29 -25 22 -32 25 -37 13 -3 -8 -2 -20 3 -26 14
-18 -11 -57 -29 -45 -12 8 -12 10 0 18 8 5 11 16 8 25 -5 14 -11 15 -27 6 -16
-8 -20 -8 -20 4 0 8 6 16 13 19 8 3 6 9 -7 19 -15 12 -16 17 -6 23 9 5 20 0
32 -15 22 -27 38 -18 20 10 -18 29 -15 47 8 53 13 3 20 14 20 31 0 14 8 29 17
35 10 5 19 9 20 8 1 -2 -1 -21 -4 -45z m-837 1 c-11 -11 -17 4 -9 23 7 18 8
18 11 1 2 -10 1 -21 -2 -24z m1161 6 c-15 -11 -27 -27 -27 -35 0 -8 -4 -14 -9
-14 -17 0 12 56 33 66 31 15 32 7 3 -17z m-1227 1 c0 -5 -4 -10 -10 -10 -5 0
-10 5 -10 10 0 6 5 10 10 10 6 0 10 -4 10 -10z m807 -5 c8 -8 13 -20 11 -26
-2 -5 -14 1 -27 15 -26 27 -11 37 16 11z m-491 -42 c-2 -3 -9 -2 -15 2 -8 4
-7 13 1 28 l13 22 3 -23 c2 -13 1 -26 -2 -29z m111 25 c-3 -8 -6 -5 -6 6 -1
11 2 17 5 13 3 -3 4 -12 1 -19z m1533 18 c0 -2 -8 -10 -17 -17 -16 -13 -17
-12 -4 4 13 16 21 21 21 13z m-1928 -38 c-9 -9 -12 -7 -12 12 0 19 3 21 12 12
9 -9 9 -15 0 -24z m378 12 c0 -5 -7 -10 -16 -10 -8 0 -12 5 -9 10 3 6 10 10
16 10 5 0 9 -4 9 -10z m578 -22 c2 -18 -4 -31 -20 -42 -31 -22 -41 -20 -26 7
7 12 11 26 10 31 -2 5 -1 15 3 23 8 22 30 10 33 -19z m-428 12 c0 -5 -5 -10
-11 -10 -5 0 -7 5 -4 10 3 6 8 10 11 10 2 0 4 -4 4 -10z m-70 -4 c0 -11 -19
-15 -25 -6 -3 5 1 10 9 10 9 0 16 -2 16 -4z m290 -6 c0 -5 -4 -10 -10 -10 -5
0 -10 5 -10 10 0 6 5 10 10 10 6 0 10 -4 10 -10z m142 -32 c-7 -7 -12 -8 -12
-2 0 14 12 26 19 19 2 -3 -1 -11 -7 -17z m992 -7 c-8 -16 -21 -32 -29 -35 -13
-5 -14 -2 -4 17 16 30 30 47 39 47 5 0 2 -13 -6 -29z m-856 2 c2 -8 -5 -13
-17 -13 -21 0 -35 13 -24 24 10 10 36 3 41 -11z m80 -23 c-12 -17 -23 -28 -26
-26 -7 8 29 66 38 61 6 -3 0 -19 -12 -35z m-1128 9 c0 -6 -4 -7 -10 -4 -5 3
-10 11 -10 16 0 6 5 7 10 4 6 -3 10 -11 10 -16z m173 1 c-6 -21 -18 -26 -28
-11 -4 7 17 28 32 31 0 0 -1 -9 -4 -20z m575 8 c28 -28 5 -36 -45 -17 -22 8
-24 12 -13 19 21 13 44 12 58 -2z m336 -7 c3 -4 -3 -19 -14 -31 -22 -26 -25
-37 -10 -42 5 -1 -8 -23 -29 -47 -36 -40 -62 -48 -60 -18 0 8 2 7 6 -1 4 -9
16 -2 39 23 32 35 49 64 22 37 -7 -7 -18 -12 -25 -12 -22 0 -14 26 17 53 17
15 30 32 30 37 0 12 17 13 24 1z m-74 -15 c0 -13 -33 -34 -45 -30 -27 11 -17
34 15 34 17 0 30 -2 30 -4z m-313 -28 c-3 -8 -6 -5 -6 6 -1 11 2 17 5 13 3 -3
4 -12 1 -19z m1270 0 c-3 -8 -6 -5 -6 6 -1 11 2 17 5 13 3 -3 4 -12 1 -19z
m-1317 2 c0 -5 7 -10 15 -10 22 0 18 -37 -4 -43 -31 -8 -56 34 -34 56 10 10
23 8 23 -3z m-620 -14 c0 -8 -4 -17 -9 -21 -12 -7 -24 12 -16 25 9 15 25 12
25 -4z m405 -25 c3 -5 1 -12 -4 -15 -5 -3 -11 1 -15 9 -6 16 9 21 19 6z m-136
-15 c10 -11 9 -16 -5 -24 -11 -6 -13 -11 -5 -16 6 -4 11 -15 11 -24 0 -12 -3
-13 -12 -4 -7 7 -20 12 -30 12 -22 0 -23 13 -2 34 8 9 13 16 9 16 -3 0 -3 5 0
10 9 14 20 12 34 -4z m596 4 c3 -5 1 -10 -5 -10 -7 0 -10 -7 -6 -15 3 -8 2
-24 -2 -36 -7 -18 -10 -19 -21 -5 -11 13 -11 21 0 46 14 31 24 37 34 20z
m-375 -25 c0 -8 7 -15 15 -15 26 0 16 -17 -12 -23 -16 -3 -29 -5 -30 -4 -1 1
1 14 4 30 6 28 23 38 23 12z m234 -19 c-7 -29 -15 -32 -43 -14 -18 11 -17 13
12 29 18 9 33 16 35 14 2 -1 0 -14 -4 -29z m-354 -6 c0 -17 -36 -30 -48 -18
-19 19 -14 28 18 28 17 0 30 -4 30 -10z m561 -17 c7 -19 7 -28 -3 -34 -16 -10
-38 31 -25 49 13 17 16 16 28 -15z m-281 7 c0 -5 -4 -10 -9 -10 -6 0 -13 5
-16 10 -3 6 1 10 9 10 9 0 16 -4 16 -10z m137 -17 c-3 -3 -11 -2 -17 2 -9 6
-9 10 1 16 14 8 27 -7 16 -18z m-366 -12 c29 -18 30 -19 10 -26 -12 -3 -21
-11 -21 -16 0 -5 -10 -9 -21 -9 -19 0 -20 2 -8 16 12 15 11 16 -6 11 -51 -14
-71 -15 -85 -7 -21 13 -7 22 41 24 24 1 45 8 47 14 5 16 6 15 43 -7z m399 9
c0 -5 -4 -10 -10 -10 -5 0 -10 5 -10 10 0 6 5 10 10 10 6 0 10 -4 10 -10z
m1137 -12 c-3 -8 -6 -5 -6 6 -1 11 2 17 5 13 3 -3 4 -12 1 -19z m-1384 -2 c3
-8 0 -17 -8 -20 -8 -3 -11 -13 -8 -24 2 -11 0 -29 -6 -40 -9 -17 -8 -22 9 -27
27 -9 25 -22 -5 -27 -25 -5 -61 21 -39 29 6 2 8 17 6 33 -2 17 1 37 8 45 6 8
9 18 6 24 -3 5 0 12 6 14 21 9 26 8 31 -7z m-337 -23 c-10 -10 -19 5 -10 18 6
11 8 11 12 0 2 -7 1 -15 -2 -18z m284 23 c0 -3 -4 -8 -10 -11 -5 -3 -10 -1
-10 4 0 6 5 11 10 11 6 0 10 -2 10 -4z m260 -21 c0 -8 -13 -28 -29 -44 -25
-26 -31 -28 -42 -15 -9 12 -9 20 1 39 17 33 70 48 70 20z m-104 -20 c10 -8 15
-15 11 -15 -4 0 -3 -8 2 -18 7 -13 6 -23 -1 -30 -19 -19 -26 -14 -22 17 2 19
-2 31 -11 35 -16 6 -21 26 -7 26 5 0 17 -7 28 -15z m209 -6 c0 -7 -8 -15 -17
-17 -12 -2 -15 2 -11 18 6 23 28 22 28 -1z m-699 -26 c-10 -10 -19 5 -10 18 6
11 8 11 12 0 2 -7 1 -15 -2 -18z m433 -2 c8 -15 7 -20 -5 -25 -34 -13 -43 -8
-31 19 14 30 23 31 36 6z m191 -6 c15 -18 15 -18 -27 -34 -36 -15 -43 -35 -17
-49 14 -8 13 -10 -5 -15 -16 -4 -21 -1 -21 14 0 10 -4 19 -10 19 -17 0 -11 16
18 48 31 35 44 39 62 17z m-520 -15 c0 -12 16 -37 35 -57 19 -20 35 -40 35
-45 0 -17 -29 -7 -48 17 -11 14 -29 25 -40 25 -26 0 -38 18 -18 26 9 3 16 17
16 30 0 13 5 24 10 24 6 0 10 -9 10 -20z m131 7 c-1 -12 -15 -9 -19 4 -3 6 1
10 8 8 6 -3 11 -8 11 -12z m506 -25 c-15 -16 -27 -33 -27 -40 0 -7 -7 -12 -15
-12 -8 0 -15 -5 -15 -11 0 -5 5 -7 12 -3 7 4 28 7 46 6 l34 -3 -6 38 -6 38 20
-24 c33 -38 2 -107 -42 -96 -10 3 -27 8 -38 11 -16 4 -21 0 -26 -26 -8 -35
-42 -66 -58 -50 -6 6 -18 10 -28 10 -26 0 -22 11 16 53 24 27 39 35 52 30 12
-4 15 -3 9 6 -5 8 10 30 41 62 26 27 50 46 53 44 2 -3 -8 -18 -22 -33z m-444
14 c3 -12 -30 -32 -39 -24 -11 12 5 40 21 36 9 -2 17 -7 18 -12z m-255 -25 c3
-8 -1 -12 -9 -9 -7 2 -15 10 -17 17 -3 8 1 12 9 9 7 -2 15 -10 17 -17z m465
-21 c11 0 17 -6 15 -12 -7 -19 -43 -21 -58 -3 -7 8 -19 15 -26 15 -8 0 -14 4
-14 8 0 18 12 20 38 6 15 -8 35 -14 45 -14z m-505 8 c16 -16 15 -28 -3 -28 -8
0 -15 -4 -15 -10 0 -5 5 -10 10 -10 6 0 10 -6 10 -14 0 -8 12 -23 27 -34 16
-11 25 -24 21 -28 -5 -4 -16 0 -27 10 -10 9 -24 16 -31 14 -16 -4 -25 30 -22
85 2 29 11 34 30 15z m330 -26 c2 -7 -3 -12 -12 -12 -9 0 -16 7 -16 16 0 17
22 14 28 -4z m-288 -13 c0 -5 -4 -9 -10 -9 -5 0 -10 7 -10 16 0 8 5 12 10 9 6
-3 10 -10 10 -16z m190 5 c0 -10 -7 -14 -22 -12 -32 5 -35 28 -4 28 17 0 26
-5 26 -16z m-320 -14 c0 -5 -5 -10 -11 -10 -5 0 -7 5 -4 10 3 6 8 10 11 10 2
0 4 -4 4 -10z m473 -12 c8 -28 4 -32 -22 -23 -17 5 -19 10 -11 26 14 25 26 24
33 -3z m451 -10 c6 -13 24 -29 39 -36 32 -15 36 -41 7 -43 -11 -1 -26 -2 -32
-3 -7 -1 -13 8 -13 19 0 14 -8 21 -28 23 -16 2 -27 6 -25 10 2 4 10 19 17 35
15 29 18 29 35 -5z m-314 13 c0 -12 -29 -23 -41 -15 -5 3 -7 10 -4 15 8 12 45
12 45 0z m-356 -46 c-7 -17 -20 -20 -28 -6 -7 10 3 21 20 21 8 0 11 -6 8 -15z
m306 0 c0 -9 -6 -12 -15 -9 -8 4 -12 10 -9 15 8 14 24 10 24 -6z m2556 -10 c9
-8 23 -15 33 -15 9 0 27 -13 39 -29 19 -26 26 -29 57 -24 42 7 46 -10 15 -50
l-20 -26 -50 22 c-27 12 -50 27 -50 33 0 6 -10 20 -22 31 -22 20 -34 21 -393
22 -228 1 -373 5 -379 11 -12 12 -41 11 337 10 262 -1 310 1 329 14 28 20 85
20 104 1z m-2276 -10 c0 -11 9 -14 32 -13 25 2 33 -1 36 -17 3 -16 1 -18 -9
-7 -18 17 -26 15 -32 -8 -3 -10 2 -25 10 -32 12 -10 18 -8 32 11 16 20 22 22
47 14 l29 -10 -32 -19 c-49 -28 -55 -64 -12 -64 21 0 22 -1 13 -24 -5 -12 -10
-13 -25 -5 -10 5 -19 14 -19 19 0 17 -95 100 -115 100 -4 0 -5 -9 -2 -21 4
-15 -3 -30 -24 -50 -35 -34 -49 -37 -49 -10 0 14 5 18 18 14 14 -3 21 6 32 45
9 35 17 49 27 45 8 -3 13 2 13 14 0 11 3 23 7 26 11 12 23 8 23 -8z m1158 -35
c-2 -19 -8 -35 -14 -37 -17 -6 -26 55 -11 72 17 19 29 3 25 -35z m-1703 20 c4
-6 -5 -10 -19 -10 -14 0 -26 5 -26 10 0 6 9 10 19 10 11 0 23 -4 26 -10z m365
-30 c0 -3 -16 -5 -35 -6 -19 0 -35 1 -35 2 0 2 12 10 27 18 26 13 42 8 43 -14z
m396 16 c1 0 5 -11 8 -23 8 -25 -8 -32 -18 -8 -3 8 -12 15 -21 15 -8 0 -15 7
-15 16 0 11 6 14 23 8 12 -3 23 -7 23 -8z m1452 -44 c19 3 52 -1 71 -7 24 -7
123 -11 289 -10 138 1 252 -1 252 -5 0 -9 -402 -42 -484 -40 -21 0 -46 -6 -55
-14 -36 -33 -64 -35 -111 -8 -25 14 -61 26 -80 27 -29 2 -36 7 -38 28 -3 25
-2 25 49 21 43 -4 51 -3 46 10 -3 8 -1 17 6 19 7 2 14 -3 15 -11 3 -10 14 -13
40 -10z m-1381 -30 c-2 -15 -8 -35 -12 -45 -7 -17 -6 -18 13 -6 14 9 25 10 31
4 15 -15 0 -31 -36 -38 -29 -6 -33 -4 -33 16 0 12 -1 32 -1 45 0 24 -19 21
-19 -4 0 -8 -4 -14 -10 -14 -5 0 -10 11 -10 25 0 15 6 25 14 25 8 0 18 9 21
20 5 17 10 18 27 9 15 -8 19 -18 15 -37z m-488 12 c10 -23 10 -26 -4 -20 -9 3
-20 6 -25 6 -4 0 -6 9 -3 20 7 27 17 25 32 -6z m389 -1 c-2 -21 -8 -28 -25
-28 -11 0 -25 -3 -29 -7 -13 -13 -34 -9 -34 7 0 8 8 15 18 15 11 0 27 9 37 20
25 28 37 25 33 -7z m955 -38 c4 -9 -1 -11 -14 -8 -10 3 -19 11 -19 19 0 16 26
8 33 -11z m-1618 -12 c-8 -8 -15 -22 -15 -30 0 -24 -13 -6 -15 20 -2 25 11 38
31 30 11 -4 11 -8 -1 -20z m2765 17 c0 -5 -4 -10 -9 -10 -6 0 -13 5 -16 10 -3
6 1 10 9 10 9 0 16 -4 16 -10z m-3125 -10 c3 5 15 10 26 10 18 0 20 -4 13 -45
-5 -33 -2 -51 10 -70 21 -31 21 -57 0 -27 -17 25 -60 31 -50 7 3 -8 2 -15 -3
-15 -9 0 -19 38 -28 110 -5 39 -4 43 10 32 10 -9 17 -10 22 -2z m3065 0 c0 -5
-9 -10 -19 -10 -11 0 -23 5 -26 10 -4 6 5 10 19 10 14 0 26 -4 26 -10z m-2043
-25 c3 -9 3 -18 0 -21 -7 -8 -47 15 -47 26 0 16 40 11 47 -5z m-576 -20 c-1
-15 -24 -12 -29 3 -3 9 2 13 12 10 10 -1 17 -7 17 -13z m-331 -14 c13 -26 13
-31 -3 -31 -22 0 -51 26 -43 38 11 18 34 14 46 -7z m194 4 c12 -9 16 -20 12
-32 -7 -16 -9 -16 -26 7 -31 40 -23 53 14 25z m92 2 c2 -7 -2 -26 -10 -41 -14
-27 -15 -27 -25 -8 -15 27 -14 49 2 55 21 9 27 8 33 -6z m394 5 c0 -4 -5 -13
-12 -20 -9 -9 -8 -15 7 -25 20 -16 5 -33 -21 -23 -13 5 -12 42 3 69 6 9 23 9
23 -1z m-582 -61 c-13 -30 -13 -31 -26 -11 -10 17 -9 23 10 42 26 26 34 12 16
-31z m466 23 c3 -7 0 -17 -6 -20 -7 -4 -14 -2 -16 4 -2 7 -12 12 -22 12 -34 0
-29 16 5 17 20 1 36 -5 39 -13z m662 4 c5 -8 2 -9 -11 -5 -11 5 -24 0 -36 -14
-13 -15 -26 -20 -44 -17 -17 4 -25 1 -25 -9 0 -8 -6 -12 -12 -9 -7 3 -21 9
-31 12 -33 12 -11 29 39 30 28 0 59 6 69 12 26 15 42 15 51 0z m-476 -8 c0 -5
-5 -10 -11 -10 -5 0 -7 5 -4 10 3 6 8 10 11 10 2 0 4 -4 4 -10z m151 -9 c19
-16 21 -22 12 -32 -9 -9 -10 -16 -2 -26 15 -18 -1 -16 -26 3 -20 15 -20 15 -1
30 22 16 20 19 -14 33 -16 6 -19 10 -9 10 9 1 27 -8 40 -18z m-276 -1 c3 -5
-1 -10 -9 -10 -8 0 -18 5 -21 10 -3 6 1 10 9 10 8 0 18 -4 21 -10z m-286 -38
c-12 -5 -39 17 -39 30 0 5 11 1 24 -9 13 -10 20 -20 15 -21z m501 23 c10 -12
10 -15 -3 -15 -8 0 -17 7 -21 15 -3 8 -2 15 3 15 5 0 14 -7 21 -15z m129 -21
c-12 -14 -39 -19 -39 -8 0 11 34 33 43 27 4 -3 3 -11 -4 -19z m260 4 c6 -16 4
-28 -7 -41 -19 -22 -27 -14 -27 29 0 39 21 46 34 12z m-189 2 c0 -5 -7 -10
-15 -10 -8 0 -15 5 -15 10 0 6 7 10 15 10 8 0 15 -4 15 -10z m-800 -15 c0 -8
-4 -15 -10 -15 -5 0 -10 7 -10 15 0 8 5 15 10 15 6 0 10 -7 10 -15z m203 9 c8
-8 -3 -34 -14 -34 -5 0 -9 9 -9 20 0 19 11 26 23 14z m-554 -26 c-5 -38 2 -48
30 -48 31 0 68 -28 54 -40 -4 -4 -29 -5 -55 -2 l-48 4 0 49 c0 27 5 49 10 49
6 0 10 -6 9 -12z m126 -8 c16 -17 16 -20 3 -15 -9 4 -19 13 -22 21 -7 19 -2
18 19 -6z m855 -6 c0 -8 -6 -14 -14 -14 -8 0 -21 -3 -30 -6 -9 -3 -16 -2 -16
4 0 5 9 12 21 15 12 3 18 10 14 16 -3 7 0 8 9 5 9 -3 16 -12 16 -20z m1280 7
c0 -13 -12 -22 -45 -31 -26 -7 -45 -18 -45 -27 0 -8 -4 -11 -10 -8 -12 8 -50
-12 -50 -27 0 -6 8 -17 18 -24 16 -12 15 -13 -8 -22 -32 -12 -40 -7 -40 25 0
29 26 53 109 100 67 38 71 39 71 14z m-2003 -13 c-3 -8 -6 -5 -6 6 -1 11 2 17
5 13 3 -3 4 -12 1 -19z m1023 13 c0 -5 -11 -8 -25 -8 -14 0 -28 3 -31 8 -3 5
9 9 25 9 17 0 31 -4 31 -9z m729 -18 c0 -25 -1 -26 -9 -8 -12 27 -12 35 0 35
6 0 10 -12 9 -27z m-689 -27 c0 -16 -18 -31 -27 -22 -8 8 5 36 17 36 5 0 10
-6 10 -14z m493 -39 c15 -23 15 -24 -9 -19 -23 4 -31 21 -17 35 9 10 9 10 26
-16z m-938 3 c-3 -5 -16 -10 -28 -9 -21 0 -21 1 -2 9 28 12 37 12 30 0z m1800
-2 c73 -1 78 -2 30 -5 -107 -7 -87 -23 28 -23 59 0 107 2 107 5 0 2 -15 9 -32
14 -28 8 -20 9 48 10 64 1 83 -2 88 -14 7 -19 50 -19 66 0 7 8 18 15 24 14 7
0 6 -2 -1 -6 -7 -2 -13 -10 -13 -17 0 -7 -11 -23 -25 -36 -22 -20 -27 -22 -55
-10 -19 8 -52 10 -92 7 -53 -5 -142 -11 -268 -17 -48 -3 -90 11 -90 30 0 22
-31 35 -41 18 -5 -7 -4 -14 1 -16 13 -5 13 -39 0 -47 -15 -9 -90 14 -97 31 -3
7 -2 22 3 32 4 9 7 20 6 23 -1 4 38 7 86 8 47 1 89 4 91 7 3 3 15 3 26 0 11
-3 61 -7 110 -8z m-1231 -19 c13 -12 6 -17 -29 -19 -62 -4 -75 -1 -75 21 0 18
4 20 48 13 26 -3 51 -10 56 -15z m-384 1 c0 -5 -7 -10 -15 -10 -8 0 -15 5 -15
10 0 6 7 10 15 10 8 0 15 -4 15 -10z m1113 -68 c4 -44 2 -70 -4 -67 -5 4 -9
38 -9 77 0 89 5 85 13 -10z m-128 26 c4 -16 3 -28 -2 -28 -15 0 -36 47 -28 60
9 15 22 2 30 -32z m-280 22 c3 -5 2 -10 -4 -10 -5 0 -13 5 -16 10 -3 6 -2 10
4 10 5 0 13 -4 16 -10z m-1615 -5 c0 -2 -13 -11 -30 -20 -26 -13 -30 -13 -30
-1 0 8 6 17 13 19 16 7 47 8 47 2z m845 -5 c3 -5 1 -10 -4 -10 -6 0 -11 5 -11
10 0 6 2 10 4 10 3 0 8 -4 11 -10z m130 -20 c3 -5 2 -10 -4 -10 -5 0 -13 5
-16 10 -3 6 -2 10 4 10 5 0 13 -4 16 -10z m640 -10 c-3 -5 -10 -10 -16 -10 -5
0 -9 5 -9 10 0 6 7 10 16 10 8 0 12 -4 9 -10z m-1530 -30 c3 -5 -1 -10 -10
-10 -9 0 -13 5 -10 10 3 6 8 10 10 10 2 0 7 -4 10 -10z m1438 3 c-7 -2 -19 -2
-25 0 -7 3 -2 5 12 5 14 0 19 -2 13 -5z m-1393 -7 c0 -3 -4 -8 -10 -11 -5 -3
-10 -1 -10 4 0 6 5 11 10 11 6 0 10 -2 10 -4z m1307 -2 c-3 -3 -12 -4 -19 -1
-8 3 -5 6 6 6 11 1 17 -2 13 -5z m-1078 -30 c2 -2 -10 -4 -27 -4 -18 0 -32 5
-32 10 0 9 47 4 59 -6z m928 10 c-3 -3 -12 -4 -19 -1 -8 3 -5 6 6 6 11 1 17
-2 13 -5z m883 -15 c0 -5 -4 -9 -10 -9 -5 0 -10 7 -10 16 0 8 5 12 10 9 6 -3
10 -10 10 -16z m-1954 -57 c-17 -16 -18 -16 -5 5 7 12 15 20 18 17 3 -2 -3
-12 -13 -22z m1141 22 c-3 -3 -12 -4 -19 -1 -8 3 -5 6 6 6 11 1 17 -2 13 -5z
m-1007 -19 c0 -8 -4 -15 -9 -15 -13 0 -22 16 -14 24 11 11 23 6 23 -9z"/>
<path d="M2763 2027 c-6 -13 -9 -35 -6 -49 5 -29 50 -55 66 -39 12 12 1 31
-18 31 -20 0 -35 32 -28 58 7 29 -1 28 -14 -1z"/>
<path d="M2804 2029 c-8 -14 16 -60 28 -53 5 3 15 0 23 -6 22 -18 18 -3 -5 22
-11 12 -20 28 -20 35 0 16 -16 17 -26 2z"/>
<path d="M3027 1963 c-8 -13 1 -42 19 -60 17 -17 24 -16 24 2 0 8 -4 15 -9 15
-5 0 -13 12 -18 27 -6 16 -12 22 -16 16z"/>
<path d="M2470 1938 c0 -16 5 -28 10 -28 13 0 13 20 0 40 -8 12 -10 9 -10 -12z"/>
<path d="M2520 1905 c0 -8 2 -15 4 -15 2 0 6 7 10 15 3 8 1 15 -4 15 -6 0 -10
-7 -10 -15z"/>
<path d="M2597 1906 c-8 -20 7 -46 27 -46 8 0 8 2 0 8 -7 4 -14 18 -16 32 -3
22 -4 23 -11 6z"/>
<path d="M2998 1880 c-3 -40 13 -70 38 -70 5 0 3 4 -4 8 -7 5 -15 28 -18 53
-7 57 -11 59 -16 9z"/>
<path d="M2930 1890 c0 -5 9 -10 19 -10 11 0 23 5 26 10 4 6 -5 10 -19 10 -14
0 -26 -4 -26 -10z"/>
<path d="M2901 1874 c0 -11 3 -14 6 -6 3 7 2 16 -1 19 -3 4 -6 -2 -5 -13z"/>
<path d="M2930 1851 c0 -5 9 -11 20 -14 24 -6 27 8 4 17 -21 8 -24 8 -24 -3z"/>
<path d="M2780 1819 c0 -5 5 -7 10 -4 6 3 10 8 10 11 0 2 -4 4 -10 4 -5 0 -10
-5 -10 -11z"/>
<path d="M3086 1804 c-8 -22 -8 -24 7 -24 7 0 13 9 13 20 0 24 -11 26 -20 4z"/>
<path d="M2930 1801 c0 -6 5 -13 10 -16 6 -3 10 1 10 9 0 9 -4 16 -10 16 -5 0
-10 -4 -10 -9z"/>
<path d="M2761 1779 c-5 -13 -6 -26 -2 -29 3 -3 8 -9 12 -13 3 -4 11 3 17 17
9 19 8 27 -3 36 -12 10 -17 8 -24 -11z"/>
<path d="M2877 1789 c7 -7 15 -10 18 -7 3 3 -2 9 -12 12 -14 6 -15 5 -6 -5z"/>
<path d="M2962 1766 c-9 -21 -7 -25 15 -35 26 -12 47 -6 37 10 -3 5 -10 7 -15
4 -5 -4 -10 -1 -10 4 -3 26 -4 30 -10 35 -3 3 -11 -5 -17 -18z"/>
<path d="M3037 1770 c3 -11 10 -20 15 -20 5 0 6 5 3 10 -3 6 -1 10 4 10 6 0
11 5 11 10 0 6 -9 10 -19 10 -14 0 -18 -5 -14 -20z"/>
<path d="M3120 1771 c0 -12 6 -21 15 -21 8 0 15 3 15 6 0 3 -7 12 -15 20 -13
14 -15 13 -15 -5z"/>
<path d="M2710 1773 c-8 -2 -22 -7 -30 -9 -13 -5 -13 -7 2 -15 20 -11 48 -2
48 17 0 8 -1 14 -2 13 -2 0 -10 -3 -18 -6z"/>
<path d="M2910 1760 c-12 -8 -12 -10 3 -16 21 -8 35 2 21 16 -5 5 -15 6 -24 0z"/>
<path d="M2855 1720 c-3 -5 1 -10 9 -10 9 0 16 5 16 10 0 6 -4 10 -9 10 -6 0
-13 -4 -16 -10z"/>
<path d="M2716 1711 c-4 -7 -5 -15 -2 -18 9 -9 19 4 14 18 -4 11 -6 11 -12 0z"/>
<path d="M2800 1660 c0 -5 5 -10 11 -10 5 0 7 5 4 10 -3 6 -8 10 -11 10 -2 0
-4 -4 -4 -10z"/>
<path d="M2676 1568 c-9 -35 -8 -38 15 -38 14 0 19 5 16 14 -3 7 -1 19 4 25 5
6 6 9 3 6 -4 -3 -13 0 -19 5 -9 8 -14 4 -19 -12z"/>
<path d="M3216 1565 c-10 -8 -13 -16 -7 -19 6 -4 8 -13 5 -20 -3 -7 2 -19 11
-26 20 -17 19 -27 -3 -34 -10 -4 -19 -13 -19 -21 0 -11 5 -12 19 -4 26 14 34
38 20 60 -15 24 -15 29 2 29 11 0 26 20 26 35 0 10 -40 10 -54 0z"/>
<path d="M2993 1519 c-6 -6 -26 -15 -45 -19 l-33 -8 30 -1 c29 0 74 23 64 34
-3 2 -10 0 -16 -6z"/>
<path d="M3268 1495 c7 -26 24 -34 30 -16 2 6 -2 11 -8 11 -7 0 -10 7 -6 15 3
9 0 15 -8 15 -10 0 -12 -7 -8 -25z"/>
<path d="M3070 1471 c0 -8 52 -23 59 -16 1 2 0 8 -4 14 -8 13 -55 15 -55 2z"/>
<path d="M3340 1460 c0 -5 5 -10 10 -10 6 0 10 5 10 10 0 6 -4 10 -10 10 -5 0
-10 -4 -10 -10z"/>
<path d="M3128 1413 c7 -3 16 -2 19 1 4 3 -2 6 -13 5 -11 0 -14 -3 -6 -6z"/>
<path d="M3165 1410 c-3 -5 -1 -10 4 -10 6 0 11 5 11 10 0 6 -2 10 -4 10 -3 0
-8 -4 -11 -10z"/>
<path d="M3265 1410 c-16 -7 -17 -9 -3 -9 9 -1 20 4 23 9 7 11 7 11 -20 0z"/>
<path d="M3260 1355 c14 -7 27 -11 30 -9 6 7 -22 24 -40 23 -9 0 -5 -6 10 -14z"/>
<path d="M1891 1679 c-13 -11 -31 -17 -38 -14 -17 6 -53 -11 -53 -25 0 -6 10
-10 23 -10 13 0 31 -6 41 -13 16 -12 17 -17 3 -70 -13 -48 -13 -58 -1 -68 21
-17 17 -32 -16 -59 -27 -23 -40 -52 -22 -49 31 5 54 -2 48 -16 -3 -8 -1 -15 3
-15 10 0 21 25 21 47 0 12 -3 13 -14 4 -23 -19 -29 5 -10 38 14 25 16 35 6 55
-11 25 -7 56 7 56 4 0 5 14 3 31 -4 28 -2 30 17 24 17 -5 20 -3 14 12 -3 10
-13 26 -20 35 -8 9 -12 22 -8 27 9 16 32 13 39 -4 8 -22 22 -18 22 5 0 11 -3
20 -7 20 -4 0 -13 2 -21 5 -7 2 -24 -5 -37 -16z m-6 -40 c11 -17 -1 -21 -15
-4 -8 9 -8 15 -2 15 6 0 14 -5 17 -11z"/>
<path d="M2020 1655 c0 -4 5 -15 10 -26 14 -25 36 -24 50 2 10 18 9 20 -12 18
-13 -2 -29 0 -35 4 -7 5 -13 5 -13 2z"/>
<path d="M1975 1640 c-4 -6 -4 -23 0 -39 4 -19 1 -34 -9 -44 -9 -9 -16 -21
-16 -28 0 -7 -7 -21 -17 -31 -18 -20 -17 -25 12 -30 17 -2 20 3 23 40 2 26 8
42 16 42 9 0 13 16 13 50 0 48 -8 62 -22 40z"/>
<path d="M1790 1595 c0 -8 2 -15 4 -15 2 0 6 7 10 15 3 8 1 15 -4 15 -6 0 -10
-7 -10 -15z"/>
<path d="M2068 1592 c-23 -4 -22 -8 2 -34 22 -24 26 -38 9 -38 -5 0 -7 -4 -4
-10 3 -5 18 -9 33 -9 15 1 20 3 11 6 -9 2 -20 22 -25 46 -7 33 -13 42 -26 39z"/>
<path d="M2222 1538 c-18 -18 -15 -58 5 -58 9 0 13 3 10 7 -4 3 -3 11 2 17 5
6 6 19 2 29 -5 14 -9 15 -19 5z"/>
<path d="M2030 1520 c12 -8 13 -13 2 -27 -7 -10 -15 -26 -19 -36 -4 -14 -12
-17 -29 -13 -28 8 -31 -5 -6 -21 16 -9 23 -7 44 15 30 33 41 79 21 86 -23 9
-30 7 -13 -4z"/>
<path d="M1995 1509 c-4 -6 -5 -12 -2 -15 2 -3 7 2 10 11 7 17 1 20 -8 4z"/>
<path d="M2153 1505 c-13 -15 4 -88 19 -79 9 6 10 52 0 75 -6 14 -9 14 -19 4z"/>
<path d="M2085 1461 c-3 -5 -1 -12 5 -16 5 -3 10 1 10 9 0 18 -6 21 -15 7z"/>
<path d="M1750 1441 c0 -15 39 -43 49 -36 18 11 12 20 -19 32 -16 6 -30 8 -30
4z"/>
<path d="M1917 1426 c-3 -8 1 -17 9 -20 9 -4 14 1 14 14 0 23 -15 27 -23 6z"/>
<path d="M2060 1433 c0 -5 9 -18 21 -29 15 -13 19 -26 15 -46 -3 -16 -2 -28 3
-28 10 0 20 56 12 67 -14 19 -51 45 -51 36z"/>
<path d="M2127 1424 c-8 -8 1 -24 14 -24 5 0 9 7 9 15 0 15 -12 20 -23 9z"/>
<path d="M2046 1391 c-4 -7 -5 -15 -2 -18 9 -9 19 4 14 18 -4 11 -6 11 -12 0z"/>
<path d="M1826 1320 c11 -21 23 -30 41 -30 l25 0 -32 30 c-18 17 -36 30 -40
30 -5 0 -2 -13 6 -30z"/>
<path d="M2040 1315 c0 -8 4 -15 10 -15 5 0 7 7 4 15 -4 8 -8 15 -10 15 -2 0
-4 -7 -4 -15z"/>
<path d="M830 604 c0 -8 5 -12 10 -9 18 11 42 -17 35 -42 -3 -13 -1 -23 4 -23
5 0 16 -3 24 -6 12 -4 14 0 10 15 -3 12 -9 21 -14 21 -5 0 -9 9 -9 20 0 18
-26 40 -49 40 -6 0 -11 -7 -11 -16z"/>
<path d="M960 515 c7 -9 15 -13 17 -11 7 7 -7 26 -19 26 -6 0 -6 -6 2 -15z"/>
<path d="M2810 1260 c0 -5 5 -10 11 -10 5 0 7 5 4 10 -3 6 -8 10 -11 10 -2 0
-4 -4 -4 -10z"/>
<path d="M2840 1230 c0 -5 5 -10 10 -10 6 0 10 5 10 10 0 6 -4 10 -10 10 -5 0
-10 -4 -10 -10z"/>
<path d="M2972 1215 c14 -14 22 -16 25 -7 3 6 11 12 18 12 8 0 16 4 19 9 3 5
-14 8 -39 7 l-44 -1 21 -20z"/>
<path d="M2790 1222 c0 -17 31 -43 47 -40 16 3 14 23 -3 23 -6 0 -19 6 -28 14
-9 8 -16 9 -16 3z"/>
<path d="M3071 1216 c-9 -11 -8 -15 5 -20 21 -8 34 1 27 19 -7 19 -17 19 -32
1z"/>
<path d="M2892 1195 c-6 -14 -36 -41 -67 -60 -79 -51 -73 -76 12 -50 7 2 19
-2 27 -10 16 -16 46 -20 46 -7 0 17 -25 32 -52 32 -32 0 -38 19 -8 27 10 3 22
14 25 24 4 10 10 19 15 19 13 0 32 38 21 44 -4 3 -13 -6 -19 -19z"/>
<path d="M3016 1194 c-10 -7 -24 -22 -30 -32 -39 -68 -56 -103 -55 -119 1 -10
6 -3 11 14 10 30 12 31 24 15 7 -9 15 -14 19 -11 3 4 -2 14 -11 24 -17 16 -17
18 -1 30 9 7 17 16 17 21 0 5 14 21 31 35 33 27 28 48 -5 23z"/>
<path d="M2940 1191 c0 -6 4 -13 10 -16 6 -3 7 1 4 9 -7 18 -14 21 -14 7z"/>
<path d="M3230 1158 c6 -7 6 -16 -1 -25 -8 -9 -8 -13 -1 -13 20 0 25 22 8 36
-9 8 -12 9 -6 2z"/>
<path d="M2740 1134 c0 -8 5 -12 10 -9 6 3 10 10 10 16 0 5 -4 9 -10 9 -5 0
-10 -7 -10 -16z"/>
<path d="M3000 1110 c-21 -13 0 -31 28 -24 12 4 22 13 22 20 0 16 -28 18 -50
4z"/>
<path d="M3228 1053 c7 -3 16 -2 19 1 4 3 -2 6 -13 5 -11 0 -14 -3 -6 -6z"/>
<path d="M2806 1041 c-4 -5 -2 -20 3 -33 10 -26 -11 -54 -31 -42 -6 4 -8 3 -4
-4 3 -5 0 -13 -6 -16 -10 -3 -9 -8 4 -15 10 -7 14 -20 12 -33 -4 -21 -4 -21 4
-3 5 11 7 26 5 32 -6 14 20 43 38 43 8 0 9 3 0 14 -9 10 -8 16 3 25 8 7 12 19
9 27 -6 16 -29 19 -37 5z"/>
<path d="M3178 1025 c-20 -27 -22 -35 -9 -35 12 0 42 48 33 53 -4 3 -15 -6
-24 -18z"/>
<path d="M2760 1030 c0 -5 5 -10 10 -10 6 0 10 5 10 10 0 6 -4 10 -10 10 -5 0
-10 -4 -10 -10z"/>
<path d="M3040 1019 c0 -5 5 -7 10 -4 6 3 10 8 10 11 0 2 -4 4 -10 4 -5 0 -10
-5 -10 -11z"/>
<path d="M2950 996 c0 -16 18 -31 27 -22 3 3 -2 12 -11 21 -14 14 -16 14 -16
1z"/>
<path d="M3000 990 c0 -5 5 -10 11 -10 5 0 7 5 4 10 -3 6 -8 10 -11 10 -2 0
-4 -4 -4 -10z"/>
<path d="M2868 985 c-2 -3 -3 -19 0 -36 3 -22 7 -27 13 -18 18 28 7 74 -13 54z"/>
<path d="M2960 895 c0 -14 6 -25 13 -25 21 0 27 11 16 31 -14 27 -29 23 -29
-6z"/>
<path d="M3035 910 c-3 -5 -1 -18 4 -27 9 -16 10 -14 11 10 0 28 -5 34 -15 17z"/>
<path d="M2856 894 c-4 -10 -1 -14 6 -12 15 5 23 28 10 28 -5 0 -13 -7 -16
-16z"/>
<path d="M3135 880 c3 -5 8 -10 11 -10 2 0 4 5 4 10 0 6 -5 10 -11 10 -5 0 -7
-4 -4 -10z"/>
<path d="M3160 840 c0 -5 5 -10 10 -10 6 0 10 5 10 10 0 6 -4 10 -10 10 -5 0
-10 -4 -10 -10z"/>
<path d="M3064 768 c-5 -7 -1 -9 13 -6 11 3 27 2 35 -3 10 -6 20 -4 27 4 9 11
3 14 -29 15 -21 1 -42 -3 -46 -10z"/>
<path d="M2910 645 c0 -14 2 -25 4 -25 2 0 11 11 20 25 16 24 16 25 -4 25 -15
0 -20 -7 -20 -25z"/>
<path d="M2957 655 c-4 -8 -3 -16 1 -19 4 -3 9 4 9 15 2 23 -3 25 -10 4z"/>
<path d="M3040 642 c0 -5 7 -9 15 -9 8 0 15 4 15 9 0 4 -7 8 -15 8 -8 0 -15
-4 -15 -8z"/>
<path d="M3010 616 c0 -22 3 -27 11 -19 8 8 8 16 0 30 -9 16 -10 14 -11 -11z"/>
<path d="M2930 560 c0 -5 5 -10 10 -10 6 0 10 5 10 10 0 6 -4 10 -10 10 -5 0
-10 -4 -10 -10z"/>
<path d="M3005 560 c-3 -5 1 -10 9 -10 8 0 18 5 21 10 3 6 -1 10 -9 10 -8 0
-18 -4 -21 -10z"/>
<path d="M3037 513 c-4 -3 -7 -11 -7 -17 0 -6 5 -5 12 2 6 6 9 14 7 17 -3 3
-9 2 -12 -2z"/>
<path d="M2210 1200 c0 -5 5 -10 11 -10 5 0 7 5 4 10 -3 6 -8 10 -11 10 -2 0
-4 -4 -4 -10z"/>
<path d="M2026 1112 c3 -40 11 -51 20 -29 4 12 14 15 36 10 l30 -6 -16 25
c-10 15 -29 28 -45 30 -27 4 -28 2 -25 -30z"/>
<path d="M2255 1120 c-18 -8 -18 -9 6 -9 14 -1 30 -6 37 -13 9 -9 12 -7 12 10
0 23 -19 28 -55 12z"/>
<path d="M2420 1116 c0 -9 7 -19 15 -22 8 -4 12 -10 9 -15 -3 -5 4 -9 15 -9
11 0 25 -8 30 -17 10 -17 10 -17 11 0 0 11 -8 21 -18 24 -10 2 -22 14 -27 25
-12 27 -35 35 -35 14z"/>
<path d="M2350 1064 c0 -8 5 -12 10 -9 6 3 10 10 10 16 0 5 -4 9 -10 9 -5 0
-10 -7 -10 -16z"/>
<path d="M2395 1070 c3 -5 8 -10 11 -10 2 0 4 5 4 10 0 6 -5 10 -11 10 -5 0
-7 -4 -4 -10z"/>
<path d="M2046 1045 c-3 -8 -17 -15 -30 -15 -18 0 -24 -4 -21 -15 15 -49 15
-49 27 -37 17 17 48 15 48 -4 0 -8 -4 -13 -10 -9 -5 3 -17 1 -27 -4 -10 -5
-31 -12 -46 -16 -25 -5 -26 -7 -12 -21 8 -8 15 -22 15 -29 0 -8 4 -17 10 -20
16 -10 50 14 50 37 0 15 5 19 20 15 11 -3 20 0 21 6 0 7 3 24 5 38 3 20 0 28
-16 32 -24 6 -26 20 -4 41 14 15 14 16 -4 16 -11 0 -22 -7 -26 -15z"/>
<path d="M1921 1037 c-6 -8 -8 -17 -4 -20 7 -8 33 11 33 24 0 13 -16 11 -29
-4z"/>
<path d="M2210 1034 c-14 -7 -39 -14 -57 -14 -17 0 -34 -4 -37 -9 -8 -13 40
-31 51 -20 6 6 34 12 62 13 45 2 83 18 70 30 -13 12 -67 12 -89 0z"/>
<path d="M2418 1001 c-35 -35 -35 -42 2 -69 25 -19 30 -20 30 -7 0 9 -5 25
-11 37 -6 11 -8 22 -5 26 7 7 39 -26 49 -50 9 -25 30 -23 22 2 -5 16 -2 20 17
21 15 0 18 3 8 6 -8 3 -23 13 -32 22 -24 23 -47 41 -50 41 -2 0 -15 -13 -30
-29z"/>
<path d="M2230 990 c0 -5 5 -10 11 -10 5 0 7 5 4 10 -3 6 -8 10 -11 10 -2 0
-4 -4 -4 -10z"/>
<path d="M2125 959 c-11 -17 1 -21 15 -4 8 9 8 15 2 15 -6 0 -14 -5 -17 -11z"/>
<path d="M2272 958 c-7 -7 -12 -24 -12 -38 0 -14 -5 -31 -12 -38 -17 -17 32
-16 55 2 19 15 13 46 -9 46 -8 0 -14 5 -14 10 0 15 29 12 46 -5 18 -17 34 -20
34 -5 0 6 -6 10 -14 10 -7 0 -19 7 -26 15 -15 18 -32 19 -48 3z"/>
<path d="M2181 943 c-13 -11 -22 -25 -20 -32 3 -9 11 -8 28 6 13 11 22 25 20
32 -3 9 -11 8 -28 -6z"/>
<path d="M2135 900 c3 -5 8 -10 11 -10 2 0 4 5 4 10 0 6 -5 10 -11 10 -5 0 -7
-4 -4 -10z"/>
<path d="M2379 892 c-13 -11 -33 -22 -44 -25 -18 -4 -18 -5 3 -6 19 -1 21 -5
16 -28 -9 -36 -13 -40 -24 -23 -8 12 -10 11 -10 -6 0 -16 6 -21 30 -21 25 0
29 4 24 19 -3 10 3 28 14 43 18 22 21 23 41 9 22 -16 28 -34 11 -34 -5 0 -10
7 -10 16 0 8 -4 12 -10 9 -20 -12 -10 -43 14 -47 18 -4 26 0 30 15 6 24 -13
67 -30 67 -7 0 -17 7 -22 15 -7 14 -11 14 -33 -3z"/>
<path d="M2475 890 c-4 -7 -2 -17 5 -23 10 -9 14 -9 17 0 3 9 15 7 43 -7 22
-11 44 -20 50 -20 14 0 13 25 -2 38 -21 16 -105 25 -113 12z"/>
<path d="M2160 874 c0 -8 5 -12 10 -9 6 3 10 10 10 16 0 5 -4 9 -10 9 -5 0
-10 -7 -10 -16z"/>
<path d="M2151 814 c0 -11 3 -14 6 -6 3 7 2 16 -1 19 -3 4 -6 -2 -5 -13z"/>
<path d="M2391 784 c0 -11 3 -14 6 -6 3 7 2 16 -1 19 -3 4 -6 -2 -5 -13z"/>
<path d="M2555 790 c3 -5 8 -10 11 -10 2 0 4 5 4 10 0 6 -5 10 -11 10 -5 0 -7
-4 -4 -10z"/>
<path d="M2510 775 c-11 -13 -10 -14 4 -9 9 3 16 10 16 15 0 13 -6 11 -20 -6z"/>
<path d="M2666 774 c-4 -10 -1 -14 6 -12 15 5 23 28 10 28 -5 0 -13 -7 -16
-16z"/>
<path d="M2216 749 c-26 -29 -27 -33 -12 -47 15 -15 16 -15 17 3 1 11 1 23 0
28 -1 4 10 13 24 19 27 12 33 28 12 28 -8 0 -26 -14 -41 -31z"/>
<path d="M2434 739 c-6 -10 11 -28 28 -29 17 0 17 20 -1 30 -14 7 -22 7 -27
-1z"/>
<path d="M2376 726 c7 -19 38 -22 32 -3 -3 6 -12 13 -21 15 -12 2 -15 -1 -11
-12z"/>
<path d="M2535 730 c-3 -5 1 -10 9 -10 8 0 18 5 21 10 3 6 -1 10 -9 10 -8 0
-18 -4 -21 -10z"/>
<path d="M2320 716 c0 -8 5 -18 10 -21 6 -3 10 1 10 9 0 8 -4 18 -10 21 -5 3
-10 -1 -10 -9z"/>
<path d="M2450 675 c0 -9 6 -12 15 -9 8 4 15 10 15 15 0 5 -7 9 -15 9 -8 0
-15 -7 -15 -15z"/>
<path d="M2710 660 c0 -5 4 -10 9 -10 6 0 13 5 16 10 3 6 -1 10 -9 10 -9 0
-16 -4 -16 -10z"/>
<path d="M1980 646 c0 -2 7 -6 15 -10 8 -3 15 -1 15 4 0 6 -7 10 -15 10 -8 0
-15 -2 -15 -4z"/>
<path d="M2638 597 c-21 -19 -36 -36 -33 -38 10 -10 74 4 79 17 3 8 1 14 -5
14 -6 0 -6 7 1 20 16 29 0 24 -42 -13z"/>
<path d="M2710 554 c0 -3 5 -15 11 -26 9 -17 8 -24 -6 -34 -12 -9 -14 -17 -7
-30 8 -14 11 -12 21 16 16 46 14 80 -4 80 -8 0 -15 -3 -15 -6z"/>
<path d="M2011 536 c-13 -15 -7 -36 9 -36 12 0 22 32 12 42 -5 5 -14 2 -21 -6z"/>
<path d="M2585 540 c3 -5 8 -10 11 -10 2 0 4 5 4 10 0 6 -5 10 -11 10 -5 0 -7
-4 -4 -10z"/>
<path d="M2440 518 c-67 -17 -67 -18 -42 -39 20 -15 22 -23 15 -45 -5 -15 -16
-28 -25 -30 -8 -1 -25 -5 -36 -8 -18 -6 -20 -3 -18 31 1 21 6 44 11 52 6 11 4
13 -9 8 -10 -4 -24 -7 -32 -7 -19 0 -18 -24 2 -41 9 -7 14 -22 11 -36 -3 -15
3 -27 17 -36 19 -13 24 -11 51 15 33 31 45 35 45 15 0 -8 17 -32 38 -55 39
-42 42 -52 13 -52 -9 0 -22 -9 -29 -21 -13 -20 -14 -20 -32 -4 -10 9 -24 14
-29 10 -6 -3 -11 -2 -11 4 0 6 14 17 30 26 29 15 30 16 14 40 -14 21 -19 23
-37 13 -21 -11 -21 -11 -2 -18 17 -6 15 -8 -13 -15 -30 -6 -33 -10 -30 -38 3
-29 6 -32 32 -30 17 1 35 -2 41 -7 15 -13 81 6 89 25 3 8 12 15 19 15 8 0 20
6 26 14 13 16 86 11 109 -7 9 -7 21 -2 44 21 28 30 29 32 9 32 -19 0 -26 -10
-22 -33 4 -21 -34 1 -40 23 -4 14 -7 18 -8 10 -1 -11 -12 -15 -41 -15 -22 0
-40 3 -40 8 0 4 -9 3 -20 -3 -25 -13 -56 -5 -64 16 -5 12 1 14 29 8 38 -7 85
1 85 15 0 5 -21 9 -47 8 -42 -2 -48 0 -45 17 2 11 -1 15 -7 11 -6 -3 -11 -13
-11 -22 0 -13 -3 -13 -15 -3 -9 7 -13 21 -10 31 4 11 -2 25 -14 36 -25 20 -27
43 -6 43 8 0 15 -5 15 -11 0 -8 4 -9 13 0 8 6 16 8 20 5 9 -9 47 6 47 19 0 15
-44 17 -90 5z"/>
<path d="M2630 522 c0 -4 5 -13 10 -18 13 -13 -4 -64 -20 -64 -6 0 -8 -5 -5
-11 4 -6 20 -7 38 -3 46 9 51 14 30 29 -15 12 -16 17 -5 34 11 19 10 21 -10
22 -22 0 -22 1 -3 9 18 8 17 9 -7 9 -16 1 -28 -3 -28 -7z"/>
<path d="M2260 510 l-25 -8 27 -1 c15 -1 30 4 33 9 7 11 0 11 -35 0z"/>
<path d="M2534 485 c-18 -15 -18 -15 5 -13 14 2 26 9 29 16 5 17 -10 15 -34
-3z"/>
<path d="M2140 479 c0 -5 10 -9 22 -9 12 0 18 3 14 7 -10 11 -36 12 -36 2z"/>
<path d="M2565 461 c-3 -6 -12 -8 -20 -4 -8 3 -15 0 -15 -5 0 -15 18 -24 25
-13 3 6 12 8 20 4 8 -3 15 0 15 5 0 15 -18 24 -25 13z"/>
<path d="M2790 368 c0 -14 -63 -68 -79 -68 -6 0 -11 -5 -11 -11 0 -6 7 -8 16
-5 9 3 27 6 41 6 16 0 27 7 30 20 3 11 9 20 14 20 5 0 9 11 9 25 0 14 -4 25
-10 25 -5 0 -10 -6 -10 -12z"/>
<path d="M2308 333 c7 -3 16 -2 19 1 4 3 -2 6 -13 5 -11 0 -14 -3 -6 -6z"/>
<path d="M2310 261 c0 -5 5 -13 10 -16 6 -3 10 -2 10 4 0 5 -4 13 -10 16 -5 3
-10 2 -10 -4z"/>
<path d="M1552 633 c2 -9 8 -18 15 -20 7 -3 9 3 6 16 -6 25 -26 28 -21 4z"/>
<path d="M853 253 c9 -2 25 -2 35 0 9 3 1 5 -18 5 -19 0 -27 -2 -17 -5z"/>
<path d="M3385 190 c-3 -5 1 -10 10 -10 9 0 13 5 10 10 -3 6 -8 10 -10 10 -2
0 -7 -4 -10 -10z"/>
<path d="M1 3034 c0 -11 3 -14 6 -6 3 7 2 16 -1 19 -3 4 -6 -2 -5 -13z"/>
<path d="M130 2980 c0 -5 5 -10 11 -10 5 0 7 5 4 10 -3 6 -8 10 -11 10 -2 0
-4 -4 -4 -10z"/>
<path d="M3150 2546 c0 -18 31 -29 44 -16 8 8 7 14 -4 20 -22 14 -40 12 -40
-4z"/>
<path d="M3570 2450 c0 -11 5 -20 10 -20 6 0 10 9 10 20 0 11 -4 20 -10 20 -5
0 -10 -9 -10 -20z"/>
<path d="M4133 2358 c-31 -15 -29 -26 2 -20 14 2 25 11 25 18 0 8 -1 14 -2 13
-2 0 -13 -5 -25 -11z"/>
<path d="M3880 2313 c1 -10 36 -53 44 -53 4 0 0 14 -9 30 -14 27 -35 41 -35
23z"/>
<path d="M4123 2260 c-13 -5 -23 -16 -23 -25 0 -11 -11 -15 -42 -16 -24 -1
-34 -3 -23 -6 34 -8 39 -20 21 -49 -13 -19 -21 -23 -29 -15 -22 22 -36 12 -34
-24 2 -39 2 -39 63 -24 34 9 48 9 57 0 8 -8 8 -11 -2 -11 -8 0 -2 -11 13 -25
15 -14 29 -25 32 -25 2 0 4 20 4 44 0 41 -2 45 -27 49 l-28 4 28 2 c32 1 33 7
10 34 -17 18 -17 19 0 32 9 6 17 24 17 39 0 28 -3 29 -37 16z"/>
<path d="M3960 2165 c0 -8 5 -15 10 -15 6 0 10 7 10 15 0 8 -4 15 -10 15 -5 0
-10 -7 -10 -15z"/>
<path d="M3945 2110 c-18 -20 -17 -20 8 -20 20 0 27 5 27 20 0 11 -4 20 -8 20
-5 0 -17 -9 -27 -20z"/>
<path d="M3394 2019 c-8 -14 11 -33 25 -25 6 4 11 14 11 22 0 16 -26 19 -36 3z"/>
<path d="M915 76 c-11 -9 -15 -16 -8 -16 6 0 15 5 18 10 10 16 43 12 55 -7 10
-16 10 -16 8 2 -4 25 -46 31 -73 11z"/>
<path d="M1115 40 c3 -5 8 -10 11 -10 2 0 4 5 4 10 0 6 -5 10 -11 10 -5 0 -7
-4 -4 -10z"/>
<path d="M2125 14 c-18 -13 -18 -14 8 -14 15 0 27 4 27 9 0 17 -15 19 -35 5z"/>
<path d="M980 10 c19 -13 30 -13 30 0 0 6 -10 10 -22 10 -19 0 -20 -2 -8 -10z"/>
<path d="M1088 3 c7 -3 16 -2 19 1 4 3 -2 6 -13 5 -11 0 -14 -3 -6 -6z"/>
</g>
</svg>
